<?xml version="1.0" standalone="no"?>
<!DOCTYPE svg PUBLIC "-//W3C//DTD SVG 20010904//EN"
 "http://www.w3.org/TR/2001/REC-SVG-20010904/DTD/svg10.dtd">
<svg version="1.0" xmlns="http://www.w3.org/2000/svg"
 width="1000.000000pt" height="1000.000000pt" viewBox="0 0 1000.000000 1000.000000"
 preserveAspectRatio="xMidYMid meet">
<metadata>
Created by potrace 1.14, written by Peter Selinger 2001-2017
</metadata>
<g transform="translate(0.000000,1000.000000) scale(0.100000,-0.100000)"
fill="#000000" stroke="none">
<path d="M4875 9235 c-38 -7 -85 -16 -102 -19 -55 -10 -190 -55 -258 -86 -313
-141 -587 -409 -721 -708 -51 -113 -105 -289 -119 -392 -7 -48 -14 -281 -15
-467 0 -108 -1 -113 -21 -113 -12 0 -49 -13 -83 -30 -59 -28 -100 -72 -110
-117 -10 -45 -20 -63 -37 -68 -10 -4 -19 -10 -19 -14 0 -5 -18 -20 -39 -34
-22 -14 -54 -41 -73 -60 -31 -33 -98 -74 -98 -62 0 8 -80 -35 -97 -52 -7 -6
-13 -16 -13 -22 0 -14 -13 -14 -27 0 -7 7 -12 6 -16 -5 -4 -10 -1 -13 9 -9 12
4 14 0 8 -23 -4 -16 -11 -33 -15 -38 -5 -6 -9 -19 -9 -30 0 -24 -79 -136 -96
-136 -17 0 -37 -27 -38 -52 -1 -22 -10 -28 -65 -49 -44 -16 -98 -71 -122 -123
-20 -45 -25 -136 -9 -167 8 -14 6 -30 -8 -63 -19 -42 -42 -68 -42 -47 0 6 -7
11 -15 11 -20 0 -19 -27 0 -47 9 -8 14 -20 12 -27 -5 -14 -40 -15 -49 -1 -5 6
-8 6 -8 -2 0 -6 5 -15 10 -18 6 -3 10 -15 10 -26 0 -16 -6 -20 -27 -17 -22 2
-27 -1 -25 -14 1 -9 -6 -23 -17 -30 -11 -8 -23 -26 -26 -41 -4 -15 -11 -30
-16 -33 -12 -7 -11 -170 1 -194 6 -11 14 -28 19 -38 6 -12 4 -27 -4 -42 -7
-13 -11 -30 -8 -37 3 -7 -2 -15 -10 -19 -8 -3 -14 -13 -12 -22 4 -22 -56 -86
-66 -71 -4 7 -14 9 -23 6 -18 -7 -22 -37 -5 -37 8 0 7 -6 -2 -17 -8 -9 -13
-19 -12 -22 1 -3 -2 -24 -8 -46 -15 -55 -6 -143 20 -185 12 -19 24 -43 27 -52
4 -10 10 -18 14 -18 19 0 37 -144 19 -155 -5 -4 -9 -19 -9 -34 0 -16 -9 -48
-19 -72 -22 -50 -29 -199 -9 -199 7 0 6 -5 -2 -15 -7 -9 -8 -15 -2 -15 16 0
102 -93 108 -117 4 -13 9 -23 13 -23 4 0 8 -9 8 -20 7 -70 4 -102 -12 -144
-24 -62 -15 -174 17 -220 12 -17 26 -32 30 -34 4 -2 8 -11 8 -20 0 -15 -2 -15
-11 -2 -9 13 -10 13 -6 0 2 -8 12 -14 21 -12 33 6 94 -31 130 -79 25 -31 41
-66 49 -106 6 -32 14 -60 18 -63 10 -8 7 -44 -4 -58 -8 -9 -7 -12 2 -10 8 2
14 -8 15 -27 4 -47 8 -55 58 -104 73 -71 88 -82 98 -76 16 10 59 -14 96 -52
44 -47 74 -112 74 -164 0 -36 26 -98 54 -127 14 -14 10 -62 -5 -62 -5 0 -9 -4
-9 -10 0 -5 9 -10 21 -10 11 0 17 5 14 10 -11 18 22 22 72 10 26 -6 68 -13 93
-14 48 -1 97 -24 138 -61 26 -24 23 -48 -6 -39 -14 5 -14 4 -3 -4 8 -6 21 -8
29 -4 8 3 20 -1 26 -9 6 -9 19 -18 29 -22 9 -3 18 -16 19 -27 0 -11 1 -26 2
-32 1 -7 -5 -12 -11 -11 -22 5 -14 -35 8 -42 22 -7 43 5 22 12 -15 5 -17 23
-4 23 6 0 17 -12 26 -28 23 -37 106 -63 210 -64 71 -1 137 -17 155 -39 3 -3
15 -11 28 -18 12 -6 22 -18 22 -26 0 -7 3 -15 8 -17 20 -9 53 -70 47 -88 -4
-11 -2 -20 3 -20 6 0 12 6 15 13 3 9 7 9 19 0 8 -7 18 -10 21 -6 4 3 7 2 7 -4
0 -34 166 -46 223 -16 51 26 133 25 193 -3 28 -13 54 -24 58 -24 4 0 24 -13
44 -28 20 -16 48 -33 62 -39 37 -14 178 -7 206 12 13 8 30 15 39 15 8 0 15 4
15 9 0 15 53 30 105 29 51 -1 91 -18 77 -33 -4 -5 -2 -5 4 -2 6 3 25 -3 42
-14 18 -10 41 -19 51 -19 11 0 26 -3 35 -6 33 -13 13 -19 -54 -18 l-71 1 1
-172 c2 -196 11 -232 75 -281 51 -38 159 -46 218 -16 34 18 37 18 37 3 0 -15
13 -17 95 -17 52 -1 95 2 96 5 6 42 2 464 -5 469 -13 8 -144 12 -177 6 l-25
-5 0 -134 c1 -125 -1 -136 -21 -156 -27 -28 -70 -19 -83 17 -15 39 -13 290 3
292 75 5 124 35 163 98 11 19 23 32 26 29 2 -3 23 4 46 15 35 17 61 20 155 20
61 -1 128 -1 147 0 38 1 110 29 110 42 0 4 10 8 22 8 12 0 18 3 15 6 -10 10
33 65 45 57 7 -4 9 0 5 9 -6 17 26 51 76 82 23 14 50 17 128 17 66 -1 111 4
134 14 19 7 35 12 35 9 0 -3 18 12 40 32 22 21 40 43 40 51 0 7 4 13 9 13 5 0
11 12 14 27 13 68 19 85 37 103 11 11 20 16 20 11 0 -5 8 -8 18 -6 9 2 21 4
25 4 5 1 5 6 2 12 -4 6 -13 8 -21 5 -12 -4 -12 -2 -3 15 7 13 16 18 27 14 9
-3 13 -3 9 1 -10 10 12 34 27 28 7 -3 21 4 31 16 10 11 28 20 40 20 12 0 25 3
29 7 4 5 15 8 24 9 38 2 66 23 123 92 16 19 31 66 34 107 5 64 32 110 73 126
15 6 22 16 20 27 -4 20 74 62 102 55 11 -3 31 9 52 31 19 20 41 36 48 36 7 0
11 3 7 6 -3 3 4 24 15 45 24 47 30 130 13 181 -7 22 -9 40 -3 46 5 5 10 19 11
31 1 11 5 21 9 21 4 0 8 10 8 23 0 17 2 19 10 7 7 -12 12 -12 22 -2 10 10 10
14 0 21 -7 4 -10 15 -6 25 5 13 9 14 20 5 15 -12 16 -10 16 34 1 15 6 27 12
27 7 0 22 9 35 21 12 12 30 22 39 23 9 2 17 13 17 28 1 14 5 34 10 44 22 52
13 176 -18 242 -8 16 -7 26 1 34 7 7 12 23 12 35 0 27 23 66 62 104 22 22 28
24 32 12 5 -12 9 -13 21 -3 15 13 10 35 -6 25 -12 -8 -11 -3 6 33 23 45 29 71
29 127 0 74 -13 115 -51 156 -14 15 -26 33 -27 40 -2 8 -6 22 -10 31 -15 33
10 194 33 222 8 9 13 45 13 86 0 39 5 73 10 76 5 3 1 15 -8 26 -15 16 -16 21
-4 28 11 7 9 11 -10 19 -14 5 -33 20 -44 33 -10 12 -27 33 -38 44 -11 12 -20
28 -22 35 -1 8 -6 20 -11 28 -5 10 -4 16 3 19 18 6 15 22 -4 22 -13 0 -15 8
-10 39 7 55 17 94 27 106 9 12 6 93 -5 117 -4 9 -5 21 -2 27 4 5 0 16 -7 23
-8 7 -12 22 -9 33 3 11 2 17 -3 13 -10 -10 -35 17 -35 37 0 9 -5 13 -11 10
-14 -9 -80 22 -102 49 -51 59 -77 111 -77 153 0 28 -4 43 -12 43 -9 0 -13 17
-13 53 1 60 -19 108 -63 152 -59 59 -85 77 -105 71 -15 -4 -34 8 -69 44 -26
27 -48 52 -48 55 0 3 -9 15 -20 27 -10 12 -17 25 -14 29 2 4 0 10 -5 14 -6 3
-8 19 -6 35 2 17 0 30 -5 30 -5 0 -7 6 -4 14 3 8 0 17 -5 21 -6 3 -8 11 -5 17
4 7 2 8 -5 4 -7 -5 -9 -12 -3 -19 5 -7 10 -19 10 -27 7 -107 15 -133 54 -187
33 -45 89 -84 139 -96 34 -9 92 -63 114 -106 11 -23 17 -57 17 -100 0 -40 5
-72 14 -85 8 -11 14 -28 14 -36 0 -9 14 -38 31 -65 31 -50 28 -67 -12 -60 -10
2 -21 0 -24 -6 -4 -5 -14 -9 -24 -9 -11 0 -43 -22 -72 -50 -49 -46 -72 -61
-67 -42 4 13 -44 97 -66 114 -27 23 -9 37 40 31 19 -2 34 1 34 7 0 5 8 10 19
10 19 0 111 83 111 100 0 19 -19 10 -26 -12 -26 -83 -205 -123 -282 -63 -52
40 -102 117 -102 157 0 10 -4 18 -10 18 -5 0 -10 -4 -10 -10 0 -5 -5 -10 -11
-10 -5 0 -7 5 -3 12 4 7 3 8 -4 4 -22 -13 -14 -35 11 -29 12 3 19 3 15 -1 -17
-20 61 -155 90 -156 7 0 10 -5 7 -10 -4 -6 -3 -10 2 -9 21 4 34 -2 27 -12 -4
-7 0 -9 14 -5 27 9 74 -40 109 -113 21 -45 26 -70 27 -141 1 -53 6 -93 14
-102 6 -8 9 -18 5 -21 -3 -4 2 -9 11 -13 15 -6 15 -7 0 -19 -9 -6 -14 -17 -10
-23 10 -16 36 -15 36 1 1 6 16 -5 34 -26 24 -27 32 -44 28 -62 -3 -18 0 -25
12 -25 11 0 15 -8 14 -25 -1 -14 -7 -25 -13 -25 -5 0 -4 -4 4 -9 12 -8 11 -15
-5 -48 -19 -39 -23 -135 -10 -231 3 -24 1 -40 -3 -37 -5 3 -11 0 -13 -7 -2 -6
-4 26 -3 72 1 65 -3 88 -15 100 -31 31 -509 350 -525 350 -8 0 -15 5 -15 11 0
6 -6 9 -14 6 -10 -4 -14 0 -11 11 2 12 -4 17 -20 17 -13 0 -21 -3 -18 -7 2 -5
-1 -8 -7 -8 -6 0 -10 -12 -8 -27 2 -22 8 -27 23 -25 15 2 17 1 6 -7 -35 -23
-41 -3 -41 144 0 101 -4 146 -12 151 -17 10 -530 11 -545 1 -6 -4 -14 -3 -19
4 -5 8 -3 9 6 4 9 -5 11 -4 6 4 -6 9 -11 9 -22 0 -8 -6 -14 -8 -14 -3 0 4 -5
3 -12 -4 -15 -15 -31 -16 -22 0 4 6 3 8 -3 5 -6 -4 -9 -18 -8 -32 2 -14 -1
-23 -6 -19 -5 3 -7 10 -3 15 3 5 0 8 -8 7 -7 -2 -12 2 -11 9 2 7 -4 10 -12 7
-11 -5 -14 2 -13 30 1 20 6 36 12 36 7 0 7 3 1 8 -14 10 -19 46 -6 37 6 -3 9
0 5 8 -3 8 2 21 10 30 8 8 12 18 8 23 -4 5 2 2 12 -6 18 -14 19 -14 7 7 -10
20 -9 22 5 16 11 -4 15 -2 11 4 -8 13 19 11 30 -2 5 -4 1 -4 -7 0 -13 8 -13 7
-1 -8 18 -22 20 -22 16 8 -2 22 0 23 13 13 13 -11 15 -10 10 9 -4 15 -1 22 11
22 39 2 50 5 56 19 3 7 2 19 -1 25 -5 8 -2 7 7 0 23 -22 39 -15 39 16 0 16 5
31 11 33 5 2 12 12 13 23 2 11 8 19 12 18 8 -1 9 23 5 94 -1 6 -8 19 -17 27
-8 9 -13 16 -9 16 3 0 -3 9 -14 21 -11 13 -24 18 -32 14 -8 -6 -10 -4 -5 4 5
7 0 18 -10 26 -23 17 -38 19 -28 3 4 -7 3 -8 -5 -4 -6 4 -9 12 -5 17 10 16
-83 50 -154 56 -37 2 -86 1 -108 -5 -24 -5 -48 -6 -57 0 -12 6 -15 4 -12 -11
4 -21 -20 -37 -30 -21 -4 6 -1 10 4 10 6 0 11 5 11 10 0 16 -26 11 -43 -8 -19
-21 -13 -33 11 -25 12 4 11 1 -3 -10 -11 -8 -23 -13 -26 -11 -9 5 -60 -21 -54
-28 3 -2 -2 -5 -10 -5 -8 0 -12 4 -9 9 10 16 -27 8 -81 -19 -37 -19 -54 -32
-50 -41 4 -11 -1 -13 -16 -9 -26 7 -62 -10 -53 -24 4 -6 12 -5 22 3 15 12 15
11 4 -4 -7 -9 -22 -15 -33 -13 -12 3 -19 -2 -19 -12 0 -9 -3 -13 -7 -9 -7 7
-15 110 -29 404 -3 76 -9 112 -17 113 -24 1 -49 8 -55 14 -3 3 -6 126 -7 273
l0 267 -40 0 -40 0 -3 -270 c-2 -148 -5 -271 -7 -273 -4 -4 -61 -6 -107 -3
-15 0 -37 11 -48 24 -19 20 -21 20 -14 2 4 -11 3 -17 -1 -12 -12 11 -13 30
-14 293 -1 223 -2 242 -19 246 -10 3 -28 1 -40 -3 -22 -8 -22 -9 -22 -278 l0
-269 -40 -7 c-32 -5 -40 -11 -40 -28 -1 -12 -3 -62 -6 -112 -2 -49 -7 -208 -9
-352 l-6 -263 -24 -6 c-26 -6 -52 -60 -32 -67 6 -2 2 -7 -8 -11 -11 -4 -16 -4
-12 0 4 4 -3 18 -14 31 -16 16 -29 21 -46 17 -14 -4 -23 -2 -23 5 0 7 -13 17
-29 22 -27 10 -29 13 -29 70 0 64 -5 75 -37 81 -25 4 -33 22 -34 75 -1 27 -7
45 -16 50 -10 6 -17 29 -20 63 -5 59 -7 63 -35 67 -25 4 -28 -4 -31 -61 -2
-28 -10 -55 -18 -64 -15 -14 -17 -28 -20 -104 -1 -23 -6 -27 -33 -30 -32 -3
-33 -5 -36 -53 -4 -81 -9 -95 -37 -95 -17 0 -29 -9 -40 -30 -13 -24 -13 -29
-1 -24 10 4 14 -2 12 -19 -1 -25 -26 -34 -26 -10 0 8 -8 13 -17 11 -14 -2 -17
3 -15 24 3 26 2 27 -59 25 l-62 -2 1 275 c0 151 2 507 2 790 2 537 6 597 48
742 116 390 434 674 857 763 71 15 281 15 370 -1 459 -80 811 -431 900 -899 5
-22 10 -404 12 -850 1 -445 4 -829 5 -853 l2 -42 105 1 c63 0 112 6 120 12 12
9 13 9 7 0 -5 -10 5 -13 43 -13 l49 0 2 153 c3 263 3 284 -4 296 -4 6 -3 11 2
11 13 0 6 48 -10 67 -11 14 -11 16 1 8 11 -6 13 -3 9 13 -3 12 0 29 8 39 13
17 13 17 14 -2 1 -12 4 -15 7 -7 3 7 -2 21 -10 30 -9 9 -17 22 -19 27 -2 6 -6
9 -10 7 -5 -1 -8 2 -8 8 0 5 4 10 9 10 6 0 8 10 6 22 -3 12 1 28 8 36 10 13 8
14 -13 7 -22 -6 -23 -5 -9 6 20 17 33 89 16 89 -7 0 -8 3 -1 10 6 6 8 31 4 60
-4 28 -2 50 2 50 5 0 6 4 3 10 -3 5 -7 25 -9 45 -3 39 -7 40 61 -25 15 -14 23
-19 18 -11 -4 8 -2 17 6 23 11 8 11 9 -2 5 -9 -3 -29 7 -47 22 l-30 28 0 345
c0 365 -6 431 -53 593 -19 65 -93 247 -110 270 -4 6 -17 28 -29 50 -139 252
-414 487 -707 605 -175 70 -289 92 -498 95 -118 2 -204 -1 -250 -10z m-1215
-1874 c0 -67 -1 -69 -31 -81 -33 -14 -52 -49 -42 -77 10 -29 35 -53 55 -53 19
0 20 -8 20 -93 0 -21 -2 -40 -4 -42 -6 -6 -101 24 -112 35 -6 6 -14 10 -20 10
-17 0 11 -22 50 -39 l38 -17 -35 -24 c-19 -13 -51 -42 -71 -65 -21 -22 -39
-37 -39 -32 -1 4 -2 10 -3 15 -1 4 -6 21 -10 39 -4 17 -14 37 -21 43 -12 10
-12 15 0 34 10 15 13 40 11 79 -4 49 -3 55 10 43 8 -8 14 -19 14 -24 0 -5 7
-15 15 -22 20 -17 19 -8 -6 34 -12 20 -18 36 -14 36 4 0 2 7 -5 15 -18 22 -5
99 26 152 33 56 97 98 157 102 15 1 17 -9 17 -68z m2 -168 c-5 -38 -10 -40
-40 -13 -29 27 -28 46 6 76 l27 26 5 -28 c3 -16 4 -44 2 -61z m-308 -107 c-15
-12 -37 -24 -48 -27 -19 -6 -17 -8 12 -19 21 -8 32 -19 32 -32 0 -13 4 -17 13
-12 9 6 9 5 0 -8 -7 -8 -9 -19 -5 -23 4 -5 1 -5 -6 -1 -7 4 -10 11 -7 16 3 5
2 11 -3 14 -4 2 -8 -9 -7 -25 0 -34 4 -35 38 -9 30 24 34 24 53 5 9 -8 12 -15
8 -15 -3 0 -1 -6 5 -14 17 -21 24 -97 12 -142 -18 -68 -114 -154 -172 -154
-29 0 -136 -108 -144 -145 -20 -105 -30 -135 -57 -175 -43 -65 -91 -89 -177
-87 -60 2 -75 6 -115 34 -25 17 -43 26 -40 19 2 -6 23 -24 46 -39 38 -25 75
-33 136 -29 27 1 28 -8 3 -56 -11 -21 -22 -55 -26 -75 -8 -43 -20 -46 -46 -13
-33 42 -92 64 -164 61 -36 -2 -65 0 -65 5 0 5 4 10 8 12 15 6 49 63 62 103 7
22 20 45 28 51 13 9 12 14 -3 37 -27 41 -28 121 -4 170 25 50 79 101 122 117
70 25 118 54 142 86 35 46 55 96 55 138 0 19 5 38 10 41 6 3 10 13 10 22 0 25
59 92 99 112 20 10 54 22 76 25 22 4 47 14 56 22 9 8 26 16 38 17 11 1 21 4
21 7 0 4 7 7 16 7 12 0 8 -7 -12 -21z m5 -27 c-16 -10 -23 -4 -14 10 3 6 11 8
17 5 6 -4 5 -9 -3 -15z m302 -86 c3 -111 4 -552 1 -571 -4 -19 -7 -21 -20 -10
-13 11 -14 11 -7 -1 6 -11 4 -13 -7 -9 -11 5 -14 0 -13 -15 1 -12 -7 -31 -18
-42 -19 -20 -19 -20 -12 5 7 24 7 24 -8 5 -10 -12 -12 -24 -6 -31 5 -7 3 -11
-6 -11 -8 0 -15 4 -15 9 0 4 -5 8 -11 8 -5 0 -7 -4 -4 -10 3 -5 -1 -10 -9 -10
-9 0 -16 -5 -16 -10 0 -13 -32 -9 -43 5 -5 6 -7 4 -4 -5 2 -8 10 -14 16 -12 7
1 10 -2 6 -7 -3 -6 -11 -8 -18 -5 -7 2 -13 -6 -13 -21 -1 -14 1 -23 5 -20 4 2
8 -2 8 -10 0 -18 -9 -19 -27 -2 -11 9 -11 8 0 -7 12 -15 12 -20 2 -24 -10 -3
-8 -8 5 -18 17 -13 17 -13 0 -14 -10 0 -15 -5 -12 -10 4 -6 12 -7 18 -4 7 4 9
4 5 -1 -4 -4 -3 -17 3 -28 8 -14 8 -18 0 -13 -6 4 -11 1 -11 -8 0 -8 -3 -16
-7 -19 -5 -2 -3 -2 4 -1 14 3 13 -48 -2 -58 -5 -4 -2 -10 8 -14 17 -6 17 -7 0
-20 -10 -7 -13 -14 -6 -14 7 0 10 -11 8 -27 -2 -16 -4 -32 -4 -37 -1 -4 -8 -5
-17 -2 -15 6 -15 4 -3 -11 12 -14 12 -16 0 -8 -11 6 -13 4 -8 -9 5 -12 3 -15
-5 -9 -23 14 -46 10 -41 -6 3 -9 -5 -1 -18 16 -13 18 -28 33 -33 33 -5 0 -1
-9 9 -20 10 -11 14 -20 9 -20 -5 0 -15 9 -22 20 -7 12 -18 18 -24 14 -6 -4 -8
-3 -5 3 6 10 -34 44 -66 56 -14 5 -36 -6 -80 -42 -116 -91 -219 -161 -230
-154 -5 3 -7 1 -4 -5 4 -5 -15 -26 -43 -46 -58 -42 -55 -24 -47 -335 1 -17 11
-28 37 -39 19 -9 37 -18 39 -19 10 -7 7 -562 -2 -556 -6 4 -7 1 -1 -8 4 -8 9
-29 11 -48 1 -18 8 -41 15 -50 8 -9 3 -8 -11 4 l-24 20 12 -23 c7 -13 10 -40
6 -65 -3 -23 -6 -47 -7 -54 -2 -18 -58 14 -60 35 0 9 -2 23 -2 30 -1 7 -8 17
-16 22 -11 7 -12 14 -2 34 8 19 8 26 -1 29 -9 3 -9 9 0 28 27 56 30 87 19 217
-5 61 -4 82 5 82 7 0 9 3 6 6 -4 4 -12 2 -19 -4 -7 -6 -16 -11 -20 -11 -16 -2
-53 44 -50 61 2 10 -2 18 -7 18 -7 0 -11 27 -11 69 0 64 1 69 20 64 14 -4 20
0 20 12 0 13 -6 16 -22 12 l-23 -6 22 18 c13 11 25 36 29 60 4 23 11 44 15 47
15 9 10 97 -9 149 -21 58 -21 74 -4 135 14 49 65 113 99 124 15 5 19 12 16 26
-4 15 0 20 13 20 16 0 17 2 4 10 -12 7 -12 12 -2 22 7 7 12 42 12 96 0 53 4
81 10 77 6 -3 10 -1 10 5 0 7 -7 10 -15 7 -8 -4 -17 -2 -20 3 -4 6 -1 10 4 10
6 0 11 15 11 34 0 33 50 159 63 157 21 -4 89 49 109 84 26 46 48 109 48 143 0
31 23 74 60 110 27 27 31 29 40 14 9 -14 10 -14 5 4 -6 22 12 36 46 38 9 1 40
16 70 35 30 19 57 34 62 33 4 -1 7 3 7 8 0 19 2 25 15 50 15 28 29 79 27 96
-2 12 37 61 77 97 14 12 34 32 45 43 31 32 56 30 57 -3z m1239 5 c0 -4 -6 -8
-14 -8 -8 0 -17 4 -20 8 -2 4 4 8 15 8 10 0 19 -4 19 -8z m134 -7 c12 -41 9
-511 -3 -492 -7 11 -10 9 -16 -8 -3 -11 -10 -21 -15 -21 -10 0 -14 498 -5 522
8 19 33 19 39 -1z m-149 -13 c5 4 5 1 1 -6 -6 -10 -11 -10 -22 -1 -8 6 -14 14
-14 16 0 3 6 0 13 -6 8 -6 18 -7 22 -3z m1644 -105 c2 -2 -3 -3 -11 -3 -9 0
-19 7 -22 16 -6 15 -4 15 11 3 10 -7 20 -15 22 -16z m-599 -57 c0 -2 -7 -7
-16 -10 -8 -3 -12 -2 -9 4 6 10 25 14 25 6z m20 -16 c0 -5 -5 -10 -11 -10 -5
0 -7 5 -4 10 3 6 8 10 11 10 2 0 4 -4 4 -10z m40 -4 c0 -2 -7 -7 -16 -10 -8
-3 -12 -2 -9 4 6 10 25 14 25 6z m-809 -33 c6 -141 4 -164 -18 -178 -28 -19
-29 -14 -27 65 3 134 3 130 24 130 12 0 20 -7 21 -17z m-2275 -31 c-18 -16
-18 -16 -6 6 6 13 14 21 18 18 3 -4 -2 -14 -12 -24z m1968 10 c3 -5 -1 -9 -9
-9 -8 0 -15 4 -15 9 0 4 4 8 9 8 6 0 12 -4 15 -8z m1002 -24 c4 -7 3 -8 -4 -4
-7 4 -12 2 -12 -5 0 -7 -3 -10 -6 -6 -6 5 3 27 11 27 2 0 7 -5 11 -12z m207
-5 c-7 -2 -19 -2 -25 0 -7 3 -2 5 12 5 14 0 19 -2 13 -5z m-1205 -34 c-18 -11
-19 -49 -2 -42 15 6 16 1 16 -117 0 -109 -3 -126 -24 -127 -20 -2 -20 -5 -18
157 1 87 4 131 9 147 1 1 8 0 17 -4 13 -5 13 -7 2 -14z m12 -19 c0 -5 -5 -10
-11 -10 -5 0 -7 5 -4 10 3 6 8 10 11 10 2 0 4 -4 4 -10z m570 -114 c0 -3 -4
-8 -10 -11 -5 -3 -10 -1 -10 4 0 6 5 11 10 11 6 0 10 -2 10 -4z m630 -56 c0
-5 -4 -10 -10 -10 -5 0 -10 5 -10 10 0 6 5 10 10 10 6 0 10 -4 10 -10z m-107
-15 c-3 -9 -8 -14 -10 -11 -3 3 -2 9 2 15 9 16 15 13 8 -4z m18 -22 c-8 -15
-10 -15 -11 -2 0 17 10 32 18 25 2 -3 -1 -13 -7 -23z m-218 -68 c-7 -21 -12
-19 -10 4 0 11 5 18 9 15 4 -3 5 -11 1 -19z m-2123 1 c0 -2 -7 -6 -15 -10 -8
-3 -15 -1 -15 4 0 6 7 10 15 10 8 0 15 -2 15 -4z m2027 -21 c0 -8 -4 -12 -9
-9 -5 3 -6 10 -3 15 9 13 12 11 12 -6z m-837 -12 c-8 -3 -22 -11 -30 -17 -13
-10 -13 -9 -1 7 7 9 21 17 30 16 13 0 14 -1 1 -6z m790 -9 c0 -8 -19 -13 -24
-6 -3 5 1 9 9 9 8 0 15 -2 15 -3z m-1623 -30 c-3 -3 -12 -4 -19 -1 -8 3 -5 6
6 6 11 1 17 -2 13 -5z m997 -2 c3 -5 -1 -9 -9 -9 -8 0 -12 4 -9 9 3 4 7 8 9 8
2 0 6 -4 9 -8z m734 -17 c-3 -3 -9 2 -12 12 -6 14 -5 15 5 6 7 -7 10 -15 7
-18z m-1633 -5 c4 -6 12 -7 18 -4 8 5 7 2 -1 -7 -10 -11 -16 -11 -32 -1 -15 9
-22 9 -35 -4 -8 -8 -15 -11 -15 -5 0 6 -7 8 -15 5 -15 -6 -21 7 -8 19 10 11
81 8 88 -3z m-365 -5 c0 -7 -30 -13 -34 -7 -3 4 4 9 15 9 10 1 19 0 19 -2z
m3652 -14 c69 -30 108 -76 122 -142 3 -13 7 -34 10 -46 3 -12 -6 -57 -20 -100
-26 -81 -26 -78 3 -187 3 -11 25 -40 48 -65 54 -58 76 -111 76 -182 1 -44 -5
-66 -25 -98 -41 -64 -127 -110 -193 -102 -13 1 -23 -2 -23 -8 0 -28 139 3 178
40 22 20 37 13 21 -11 -5 -8 -9 -48 -9 -87 0 -71 -1 -73 -24 -73 -14 0 -27 4
-30 9 -10 15 -100 9 -145 -11 -24 -10 -41 -21 -38 -24 3 -4 14 -3 24 1 10 5
20 9 23 10 3 1 13 5 22 9 16 7 77 4 133 -5 30 -6 95 -69 112 -109 20 -46 19
-125 -1 -172 -9 -20 -40 -64 -70 -98 -52 -58 -63 -83 -70 -159 -3 -30 9 -81
26 -106 3 -5 5 -35 4 -65 -3 -86 -65 -190 -112 -190 -8 0 -14 -5 -14 -11 0
-17 -138 -8 -179 12 -65 32 -101 94 -101 176 0 72 23 122 84 187 25 26 46 57
46 67 0 10 5 21 10 24 15 10 12 125 -6 175 -26 74 -10 150 45 212 13 14 20 31
17 37 -4 6 -9 44 -10 85 -2 40 -7 79 -10 85 -9 14 9 14 34 1 13 -7 21 -7 25 0
3 5 -3 10 -14 10 -12 0 -21 5 -21 10 0 6 -6 10 -14 10 -21 0 -76 68 -92 115
-16 46 -18 94 -5 127 22 54 25 66 27 113 2 63 -23 133 -63 171 -54 51 -76 102
-77 174 -1 97 29 146 113 187 56 28 106 29 163 4z m-3312 -1 c0 -5 -5 -10 -11
-10 -5 0 -7 5 -4 10 3 6 8 10 11 10 2 0 4 -4 4 -10z m1370 -6 c0 -8 -19 -13
-24 -6 -3 5 1 9 9 9 8 0 15 -2 15 -3z m204 -2 c3 -5 -1 -9 -9 -9 -8 0 -12 4
-9 9 3 4 7 8 9 8 2 0 6 -4 9 -8z m-817 -27 c0 -8 -4 -12 -9 -9 -5 3 -6 10 -3
15 9 13 12 11 12 -6z m47 -17 c-3 -4 -9 -8 -15 -8 -5 0 -9 4 -9 8 0 5 7 9 15
9 8 0 12 -4 9 -9z m801 2 c3 -6 -1 -7 -9 -4 -18 7 -21 14 -7 14 6 0 13 -4 16
-10z m-1663 -35 c-3 -5 2 -4 11 3 9 8 22 10 28 6 7 -4 9 -3 5 4 -4 7 1 10 14
9 11 -1 20 -5 20 -10 0 -4 8 -7 18 -6 48 4 49 2 50 -68 1 -80 -3 -99 -24 -107
-10 -4 -13 -2 -8 7 5 7 0 6 -10 -3 -11 -8 -29 -13 -42 -12 -13 2 -24 -1 -24
-7 0 -8 -6 -7 -19 1 -22 14 -32 59 -18 84 7 12 6 15 -2 10 -6 -4 -11 -2 -11 3
0 6 4 11 10 11 5 0 8 6 5 13 -10 30 -14 101 -6 87 6 -8 7 -19 3 -25z m856 -10
c-3 -3 -9 2 -12 12 -6 14 -5 15 5 6 7 -7 10 -15 7 -18z m1089 8 c0 -9 -4 -10
-14 -2 -7 6 -13 12 -13 14 0 1 6 2 13 2 8 0 14 -6 14 -14z m-672 -11 c-3 -3
-11 0 -18 7 -9 10 -8 11 6 5 10 -3 15 -9 12 -12z m376 -5 c-10 -9 -11 -8 -5 6
3 10 9 15 12 12 3 -3 0 -11 -7 -18z m201 -2 c0 -5 -5 -11 -10 -13 -5 -1 -9 4
-9 13 0 9 4 14 9 13 5 -2 10 -8 10 -13z m-1078 -11 c3 -8 2 -12 -4 -9 -6 3
-10 10 -10 16 0 14 7 11 14 -7z m-2013 -26 c107 -57 149 -173 99 -275 -11 -23
-42 -67 -69 -98 -65 -75 -79 -140 -51 -246 19 -75 19 -90 1 -155 -15 -57 -79
-122 -123 -128 -3 -1 -10 -4 -14 -8 -11 -12 -112 -10 -119 2 -3 6 -14 10 -24
10 -20 0 -91 67 -91 86 0 7 -5 14 -11 16 -7 2 -12 31 -12 74 -1 84 15 123 75
185 24 24 49 57 55 72 22 49 26 128 9 176 -41 113 -1 233 96 286 30 17 149 18
179 3z m3098 -7 c-7 -3 -16 -17 -17 -31 -6 -42 -13 -37 -11 6 2 36 5 40 23 36
15 -4 16 -7 5 -11z m-1444 2 c-11 -3 -23 -10 -27 -17 -6 -8 -8 -7 -8 2 0 7 -4
10 -10 7 -5 -3 -10 -2 -10 3 0 5 17 9 38 9 20 0 28 -2 17 -4z m400 -11 c-3 -3
-11 0 -18 7 -9 10 -8 11 6 5 10 -3 15 -9 12 -12z m460 9 c3 -5 2 -12 -3 -15
-5 -3 -9 1 -9 9 0 17 3 19 12 6z m112 3 c-4 -4 3 -15 14 -25 18 -15 20 -28 18
-103 -1 -55 -6 -86 -13 -86 -6 0 -5 -4 3 -9 12 -8 12 -12 2 -24 -8 -11 -9 -17
-1 -22 8 -5 8 -10 0 -20 -8 -10 -7 -14 2 -18 8 -4 7 -6 -4 -6 -10 -1 -18 -5
-18 -11 0 -5 3 -9 8 -7 4 1 7 -2 7 -8 0 -5 -4 -9 -10 -7 -5 1 -3 -3 6 -10 12
-10 13 -16 5 -24 -14 -13 -46 -14 -46 -1 0 5 6 7 14 4 9 -4 13 0 11 11 -2 9
-4 24 -5 32 0 8 -8 -2 -17 -22 -8 -21 -19 -35 -24 -32 -5 3 -4 14 2 25 6 12 8
23 5 27 -3 3 -6 0 -6 -6 0 -10 -38 -28 -52 -24 -5 1 -8 -3 -8 -10 0 -9 -3 -9
-11 -1 -16 16 -1 37 16 23 10 -8 15 -8 21 2 13 20 11 32 -6 45 -16 12 -34 7
-24 -8 3 -5 10 -7 15 -4 5 4 9 2 9 -4 0 -14 -14 -21 -26 -13 -10 8 -14 73 -4
67 4 -2 7 2 7 10 0 8 -3 12 -7 10 -4 -2 -8 46 -9 107 -1 62 1 109 5 105 4 -4
13 1 21 11 10 12 16 14 19 5 3 -7 10 -13 15 -13 6 0 8 4 4 9 -3 5 -1 13 5 16
6 4 10 3 9 -2 -4 -21 3 -21 21 -3 11 11 23 20 27 20 3 0 3 -3 0 -6z m-402 -42
c-3 -3 2 -10 11 -17 14 -10 14 -12 0 -24 -12 -10 -16 -10 -16 -2 0 7 -5 9 -12
5 -10 -6 -10 -5 -1 7 9 11 9 19 2 26 -6 6 -5 10 6 10 8 0 13 -3 10 -5z m162
-47 c9 -19 10 -105 2 -185 -2 -19 0 -41 5 -48 4 -6 2 -12 -3 -12 -6 0 -11 5
-11 10 0 6 -4 10 -9 10 -14 0 -7 -46 9 -65 11 -14 11 -16 0 -13 -19 4 -25 -32
-8 -43 10 -6 10 -9 1 -9 -21 0 -28 4 -25 15 2 5 3 36 3 67 0 48 3 58 17 59 15
1 15 2 0 6 -10 2 -18 11 -18 20 0 12 3 13 13 4 10 -8 14 -7 14 4 0 8 -4 12 -8
9 -15 -9 -24 32 -23 101 3 123 2 118 17 103 8 -7 18 -22 24 -33z m696 -31 c-3
-24 0 -39 9 -45 8 -5 8 -9 2 -9 -7 0 -10 -13 -9 -30 1 -16 -1 -30 -4 -30 -4 0
-7 36 -7 79 0 44 3 78 7 76 4 -3 5 -21 2 -41z m-2275 11 c-3 -3 -9 2 -12 12
-6 14 -5 15 5 6 7 -7 10 -15 7 -18z m161 3 c-5 -10 -11 -18 -12 -18 -2 0 -3 8
-3 18 0 10 6 19 13 19 8 0 9 -6 2 -19z m2464 7 c-3 -9 -8 -14 -10 -11 -3 3 -2
9 2 15 9 16 15 13 8 -4z m182 5 c3 -6 -1 -7 -9 -4 -18 7 -21 14 -7 14 6 0 13
-4 16 -10z m-1367 -93 c-2 -49 -8 -76 -18 -85 -13 -10 -13 -11 3 -6 9 3 17 1
17 -5 0 -6 -4 -11 -10 -11 -5 0 -10 -5 -10 -11 0 -5 5 -7 10 -4 13 8 8 -17 -5
-27 -6 -5 -4 -12 5 -19 13 -9 12 -10 -3 -5 -10 3 -24 6 -30 6 -6 0 -2 6 9 14
10 8 16 18 11 22 -4 4 -7 2 -7 -4 0 -7 -4 -12 -8 -12 -5 0 -9 7 -9 15 0 8 4
12 9 9 4 -3 8 0 8 5 0 6 -4 11 -9 11 -11 0 -9 19 3 39 6 10 5 12 -2 7 -9 -5
-12 10 -12 55 0 47 4 65 17 75 28 20 33 8 31 -69z m-657 42 c-5 -13 -10 -19
-10 -12 -1 15 10 45 15 40 3 -2 0 -15 -5 -28z m-331 17 c0 -2 -8 -10 -17 -17
-16 -13 -17 -12 -4 4 13 16 21 21 21 13z m285 -26 c4 -6 11 -8 16 -5 5 3 6 -1
2 -10 -4 -12 -8 -13 -13 -5 -4 7 -14 16 -21 21 -9 6 -10 9 -2 9 6 0 15 -5 18
-10z m-164 -24 c2 -37 -3 -61 -15 -68 -7 -5 -7 -8 0 -8 6 0 11 -7 11 -14 0
-12 -5 -13 -21 -4 -20 11 -21 10 -3 -10 18 -19 18 -20 0 -18 -10 0 -17 -4 -16
-11 3 -13 -22 -12 -34 2 -4 4 -2 5 6 0 9 -5 12 -4 8 2 -4 6 -17 9 -29 6 -13
-2 -29 1 -37 6 -16 10 -25 71 -11 71 6 0 10 7 10 15 0 8 5 15 11 15 5 0 7 6 3
13 -4 6 -4 9 1 5 4 -4 15 -2 24 5 14 11 14 10 2 -5 -12 -16 -11 -18 5 -18 32
0 64 12 59 21 -3 4 -12 6 -19 3 -8 -3 -16 -2 -19 3 -3 4 10 9 29 9 28 1 34 -2
35 -20z m154 -4 c-3 -3 -11 0 -18 7 -9 10 -8 11 6 5 10 -3 15 -9 12 -12z m381
2 c-4 -11 -2 -15 7 -11 16 6 16 4 20 -80 3 -51 1 -60 -10 -51 -11 9 -11 14 -1
26 11 13 10 14 -10 8 -14 -5 -22 -3 -22 4 0 6 5 8 12 4 7 -4 8 -3 4 4 -5 8 -1
10 11 6 14 -4 15 -4 4 4 -11 8 -11 10 0 15 10 4 11 6 1 6 -7 1 -20 -8 -29 -19
-19 -22 -39 -27 -27 -7 6 9 4 9 -8 -1 -12 -9 -18 -10 -23 -2 -4 6 -5 12 -4 13
2 2 13 9 23 17 12 9 17 10 12 3 -5 -9 -2 -11 9 -7 9 4 14 9 11 12 -3 2 -1 13
5 23 14 28 -15 25 -41 -3 -18 -20 -20 -20 -14 -4 6 15 4 17 -7 11 -11 -6 -12
-5 -2 5 7 7 25 15 40 16 15 2 29 8 31 14 2 5 6 10 9 10 3 0 2 -7 -1 -16z m159
7 c3 -5 2 -12 -3 -15 -5 -3 -9 1 -9 9 0 17 3 19 12 6z m877 0 c4 -1 4 -9 1
-18 -6 -15 -7 -14 -14 3 -6 18 -8 17 -17 -6 l-11 -25 2 26 c1 18 6 26 17 24 8
-2 18 -4 22 -4z m862 1 c3 -5 -1 -9 -9 -9 -8 0 -12 4 -9 9 3 4 7 8 9 8 2 0 6
-4 9 -8z m-1717 -37 c0 -8 -4 -12 -9 -9 -4 3 -8 9 -8 15 0 5 4 9 8 9 5 0 9 -7
9 -15z m-30 -17 c-3 -8 -6 -5 -6 6 -1 11 2 17 5 13 3 -3 4 -12 1 -19z m1589 0
c5 -8 2 -9 -9 -5 -9 3 -19 1 -23 -5 -4 -7 -3 -8 4 -4 7 4 12 1 12 -6 0 -7 -11
-13 -25 -13 -26 0 -29 4 -20 27 7 17 52 22 61 6z m-1573 -26 c-10 -10 -20 -14
-22 -9 -2 5 3 13 10 18 24 15 30 10 12 -9z m1717 3 c0 -2 -6 -5 -13 -8 -8 -3
-14 1 -14 8 0 7 6 11 14 8 7 -3 13 -6 13 -8z m-714 -20 c1 -8 -1 -17 -5 -19
-4 -3 -7 6 -7 19 0 25 8 25 12 0z m-2466 5 c0 -5 -5 -10 -11 -10 -5 0 -7 5 -4
10 3 6 8 10 11 10 2 0 4 -4 4 -10z m-183 -17 c-4 -3 -3 -11 3 -17 5 -7 5 -17
-1 -26 -8 -12 -9 -11 -7 4 2 10 -3 21 -11 24 -8 3 -11 0 -7 -7 5 -7 -1 -11
-15 -11 -21 0 -21 0 2 20 22 18 51 29 36 13z m1063 -7 c-7 -7 -13 -7 -20 0 -6
6 -3 10 10 10 13 0 16 -4 10 -10z m596 -13 c-1 -16 -5 -34 -9 -40 -5 -8 -4
-13 2 -13 6 0 11 -7 11 -16 0 -8 -4 -13 -9 -10 -5 3 -12 -1 -15 -10 -4 -11 -2
-15 7 -11 8 3 13 -3 14 -14 2 -18 1 -18 -15 -3 -16 17 -25 57 -10 48 13 -8 9
11 -4 25 -11 10 -10 12 1 9 7 -2 16 3 18 10 3 8 -2 10 -14 6 -16 -5 -17 -5 -1
6 9 6 15 17 12 25 -4 8 -2 15 3 15 5 0 9 -12 9 -27z m1694 3 c8 -11 10 -17 3
-13 -6 4 -13 1 -16 -5 -2 -7 -4 0 -4 15 0 15 0 27 1 25 1 -2 8 -12 16 -22z
m-705 -85 c0 -44 -3 -78 -6 -76 -4 3 -5 143 0 153 5 10 6 -9 6 -77z m-2669 50
c-4 -5 -1 -12 4 -14 6 -3 5 -4 -2 -3 -15 3 -23 26 -8 26 6 0 9 -4 6 -9z m1474
-11 c-8 -5 -19 -10 -25 -10 -5 0 -3 5 5 10 8 5 20 10 25 10 6 0 3 -5 -5 -10z
m888 -15 c-3 -3 -9 2 -12 12 -6 14 -5 15 5 6 7 -7 10 -15 7 -18z m-833 -4 c3
-5 2 -12 -3 -15 -5 -3 -9 1 -9 9 0 17 3 19 12 6z m1675 -2 c0 -4 10 -5 23 -2
16 3 18 2 9 -5 -8 -5 -13 -12 -13 -16 3 -23 0 -28 -11 -18 -7 6 -17 11 -23 11
-15 1 -14 38 1 38 8 0 14 -4 14 -8z m175 1 c3 -6 -1 -7 -9 -4 -18 7 -21 14 -7
14 6 0 13 -4 16 -10z m-1878 -22 c-3 -8 -6 -5 -6 6 -1 11 2 17 5 13 3 -3 4
-12 1 -19z m325 -6 c-6 -2 -9 -9 -5 -15 3 -7 -3 -4 -15 7 -27 23 -19 40 11 24
14 -7 17 -13 9 -16z m323 19 c-6 -11 12 -24 39 -28 26 -4 34 -13 13 -13 -20 0
-21 -9 -3 -32 7 -10 17 -14 21 -10 5 4 5 1 0 -7 -6 -11 -11 -9 -25 9 -11 15
-19 19 -24 11 -4 -6 -3 -11 2 -11 5 0 12 -9 15 -19 3 -13 1 -18 -8 -14 -10 3
-12 -2 -9 -19 3 -15 2 -18 -3 -8 -5 8 -16 16 -27 18 -10 2 -15 -1 -12 -7 4 -5
1 -13 -5 -17 -17 -10 -33 25 -35 79 -1 43 1 47 19 41 14 -4 17 -3 12 6 -5 8
-4 11 2 7 6 -4 13 0 17 8 3 8 8 15 11 15 4 0 4 -4 0 -9z m-1757 -21 c-7 -10
-14 -18 -15 -16 -6 6 9 36 18 36 5 0 4 -9 -3 -20z m1132 -10 c0 -5 -5 -10 -11
-10 -5 0 -7 5 -4 10 3 6 8 10 11 10 2 0 4 -4 4 -10z m-1685 -20 c4 -6 1 -9 -6
-8 -7 2 -13 -3 -14 -9 0 -7 -3 -13 -7 -13 -5 0 -13 0 -19 0 -6 0 -1 9 12 20
29 23 26 22 34 10z m1987 -36 c-9 -16 -10 -14 -9 8 1 15 6 23 11 18 4 -4 4
-16 -2 -26z m1136 11 c-3 -3 -9 2 -12 12 -6 14 -5 15 5 6 7 -7 10 -15 7 -18z
m-1159 8 c-5 -30 3 -55 15 -50 9 4 13 0 11 -11 -2 -9 -4 -26 -4 -37 -1 -16 -3
-17 -11 -5 -5 9 -5 19 2 27 7 9 7 13 -1 13 -12 0 -14 -10 -11 -55 1 -16 -1
-27 -6 -23 -11 11 -12 78 -1 78 6 0 6 5 1 13 -11 14 -10 57 1 57 3 0 4 -3 4
-7z m1581 1 c0 -8 -19 -13 -24 -6 -3 5 1 9 9 9 8 0 15 -2 15 -3z m223 -6 c-11
-18 -10 -32 2 -41 6 -5 4 -7 -5 -4 -8 2 -15 10 -16 18 0 14 14 39 23 39 2 0 1
-6 -4 -12z m-1918 -15 c5 -14 3 -15 -6 -6 -6 6 -19 9 -28 6 -14 -4 -14 -3 -1
6 21 15 27 14 35 -6z m1329 -5 c-5 -8 0 -9 16 -5 16 4 20 3 12 -5 -13 -13 -46
-2 -37 12 3 5 8 10 11 10 3 0 2 -5 -2 -12z m-3239 -8 c10 8 15 8 21 -1 4 -7 3
-9 -4 -5 -6 3 -13 2 -17 -4 -8 -13 -25 -3 -24 13 0 8 2 8 6 -1 4 -9 8 -10 18
-2z m2172 -5 c0 -8 -4 -12 -9 -9 -5 3 -6 10 -3 15 9 13 12 11 12 -6z m588 -3
c-3 -3 -11 0 -18 7 -9 10 -8 11 6 5 10 -3 15 -9 12 -12z m-1010 -4 c4 4 2 -3
-4 -15 -13 -25 -26 -32 -18 -9 3 7 0 20 -6 27 -10 11 -9 11 4 1 9 -6 19 -8 24
-4z m1151 -15 c-10 -11 -19 -7 -22 10 -2 15 0 16 12 6 8 -6 12 -14 10 -16z
m-2943 10 c-7 -2 -13 -12 -13 -20 0 -9 -3 -14 -6 -10 -10 10 4 37 18 36 10 0
10 -2 1 -6z m1625 -11 c2 -7 -1 -12 -8 -12 -6 0 -8 5 -4 12 4 6 3 9 -2 5 -5
-3 -9 -22 -8 -42 1 -20 -1 -34 -4 -30 -7 7 -11 67 -5 78 6 11 26 4 31 -11z
m319 11 c-4 -3 -1 -13 6 -21 10 -13 9 -14 -1 -8 -9 6 -11 0 -7 -26 4 -26 3
-29 -6 -15 -5 9 -14 15 -18 13 -4 -3 -8 1 -8 9 0 8 5 11 10 8 7 -4 8 1 3 12
-4 11 -2 22 6 27 16 9 24 10 15 1z m835 -12 c8 12 9 12 6 0 -6 -22 -28 -25
-27 -4 0 12 2 14 6 4 5 -11 7 -11 15 0z m622 -7 c3 -8 2 -12 -4 -9 -6 3 -10
10 -10 16 0 14 7 11 14 -7z m-2750 -6 c-4 -6 1 -17 11 -25 16 -11 16 -13 3
-13 -9 0 -19 7 -22 16 -6 15 0 34 10 34 3 0 2 -5 -2 -12z m236 -2 c0 -3 -4 -8
-10 -11 -5 -3 -10 -1 -10 4 0 6 5 11 10 11 6 0 10 -2 10 -4z m1534 -36 c-5 -5
-10 3 -11 18 -1 22 0 24 9 8 6 -10 6 -22 2 -26z m-189 20 c-3 -5 -14 -10 -23
-9 -14 0 -13 2 3 9 27 11 27 11 20 0z m148 -10 c-14 -6 -21 -16 -18 -28 2 -10
-1 -25 -5 -32 -6 -10 -8 -4 -6 15 2 39 13 55 34 54 13 0 11 -3 -5 -9z m753
-40 c-1 -25 -5 -36 -13 -33 -7 3 -10 9 -7 14 3 5 1 9 -3 9 -5 0 -9 13 -8 28 0
22 4 28 16 25 12 -4 16 -15 15 -43z m723 38 c14 5 14 4 -1 -11 -9 -9 -20 -17
-24 -17 -4 0 -4 3 -1 7 4 3 1 13 -5 22 -10 13 -10 14 1 4 7 -6 21 -9 30 -5z
m-2823 -35 c-3 -20 -22 -28 -31 -14 -4 7 1 9 12 5 17 -5 17 -5 0 9 -13 11 -15
16 -5 20 18 6 27 0 24 -20z m1178 5 c1 -7 5 -19 9 -25 5 -8 3 -13 -3 -13 -7 0
-10 -6 -7 -12 2 -7 9 -13 15 -13 7 0 12 -4 11 -10 0 -5 -7 -9 -16 -7 -9 2 -13
-2 -11 -10 3 -7 14 -12 24 -10 11 2 15 -1 9 -5 -9 -7 -12 -28 -5 -35 1 -2 3
-16 4 -31 2 -20 0 -25 -8 -17 -6 6 -12 15 -12 21 -1 5 -2 12 -3 15 0 4 -9 0
-18 -7 -16 -12 -17 -12 -7 1 6 8 10 52 9 97 -1 73 3 100 9 61z m-284 3 c0 -6
-4 -12 -8 -15 -5 -3 -9 1 -9 9 0 8 4 15 9 15 4 0 8 -4 8 -9z m1515 -1 c3 -6
-1 -7 -9 -4 -18 7 -21 14 -7 14 6 0 13 -4 16 -10z m405 -20 c0 -5 -5 -10 -11
-10 -5 0 -7 5 -4 10 3 6 8 10 11 10 2 0 4 -4 4 -10z m-340 -21 c17 -13 18 -17
5 -10 -33 17 -51 31 -40 31 6 0 21 -10 35 -21z m54 -18 c-3 -3 -15 6 -27 18
l-22 24 27 -19 c14 -10 24 -21 22 -23z m294 10 c-7 -12 -16 -21 -21 -21 -4 0
-6 4 -3 9 4 5 3 11 -1 14 -5 2 -2 2 5 1 7 -2 15 3 19 12 3 8 7 13 10 10 2 -2
-2 -13 -9 -25z m162 23 c0 -1 -3 -10 -6 -18 -5 -14 -9 -14 -22 -4 -13 11 -15
10 -9 -4 4 -11 2 -15 -6 -12 -7 2 -13 13 -13 24 0 14 7 18 28 18 15 -1 28 -2
28 -4z m-3013 -36 c-3 -8 -6 -5 -6 6 -1 11 2 17 5 13 3 -3 4 -12 1 -19z m933
16 c0 -8 -19 -13 -24 -6 -3 5 1 9 9 9 8 0 15 -2 15 -3z m845 -23 c2 -11 0 -21
-4 -21 -5 0 -8 11 -8 25 0 30 6 28 12 -4z m23 2 c-2 -30 -14 -43 -38 -42 -9 0
-6 4 7 9 17 7 21 15 17 34 -2 15 0 26 6 26 5 0 9 -12 8 -27z m816 19 c3 -5 -1
-9 -9 -9 -8 0 -12 4 -9 9 3 4 7 8 9 8 2 0 6 -4 9 -8z m541 -2 c3 -5 1 -10 -4
-10 -6 0 -11 5 -11 10 0 6 2 10 4 10 3 0 8 -4 11 -10z m-1784 -18 c-7 -2 -18
1 -23 6 -8 8 -4 9 13 5 13 -4 18 -8 10 -11z m-299 -4 c-16 -16 -15 -33 1 -20
9 8 12 -3 13 -49 0 -50 -2 -59 -15 -54 -14 4 -14 4 0 -7 9 -7 15 -22 13 -33
-2 -10 1 -25 7 -31 6 -8 5 -13 -5 -17 -11 -4 -13 -1 -10 11 5 15 4 15 -6 0 -6
-10 -16 -18 -23 -18 -7 0 -6 4 3 10 13 8 13 10 1 10 -11 0 -10 4 4 13 14 11
15 16 5 22 -9 6 -11 4 -5 -6 5 -8 4 -11 -1 -6 -12 12 -12 80 1 89 7 5 6 8 -1
8 -6 0 -9 15 -8 35 4 41 10 55 27 55 8 0 8 -3 -1 -12z m1785 -7 c-1 -13 -7
-18 -20 -15 -11 2 -22 6 -26 10 -3 4 2 4 12 1 11 -4 20 -1 23 8 8 21 13 19 11
-4z m279 0 c20 17 17 5 -4 -14 -17 -15 -18 -14 -19 11 0 15 1 19 4 9 4 -14 8
-16 19 -6z m-1039 -13 c2 -17 0 -19 -7 -8 -5 8 -6 18 -4 22 8 12 10 10 11 -14z
m490 7 c0 -8 -4 -12 -9 -9 -5 3 -6 10 -3 15 9 13 12 11 12 -6z m-1230 -10 c0
-8 -4 -12 -9 -9 -4 3 -8 9 -8 15 0 5 4 9 8 9 5 0 9 -7 9 -15z m-427 -10 c0 -2
-6 -8 -13 -14 -10 -8 -14 -7 -14 2 0 8 6 14 14 14 7 0 13 -1 13 -2z m995 -4
c3 -5 2 -12 -3 -15 -5 -3 -9 1 -9 9 0 17 3 19 12 6z m-290 -23 c-6 -22 -6 -22
9 -4 9 11 16 15 16 9 0 -7 -4 -15 -10 -18 -5 -3 -10 -11 -10 -17 0 -6 7 -5 18
3 15 13 16 12 3 -3 -7 -10 -18 -15 -25 -11 -6 3 -2 -3 8 -15 11 -12 15 -22 10
-22 -5 0 -2 -5 6 -11 13 -9 12 -10 -2 -5 -27 8 -23 -28 5 -43 21 -11 21 -11 0
-6 -24 6 -40 -9 -22 -21 8 -5 9 -3 4 7 -7 12 -5 12 6 1 9 -8 10 -15 4 -20 -6
-4 -11 -15 -13 -24 -2 -13 2 -16 15 -11 15 6 16 5 3 -9 -8 -9 -19 -14 -25 -11
-5 2 -1 -3 9 -11 21 -17 11 -22 -13 -7 -8 5 -11 16 -8 25 3 8 2 18 -4 22 -6 3
-3 11 8 20 11 8 13 13 6 14 -7 0 -13 7 -13 15 0 8 6 15 13 16 10 0 10 2 0 6
-19 7 -16 33 5 50 16 13 15 14 -6 10 -16 -4 -21 -2 -15 6 5 7 8 29 8 50 -1 20
2 37 7 37 5 0 7 -10 3 -22z m-871 4 c3 -5 -1 -9 -9 -9 -8 0 -12 4 -9 9 3 4 7
8 9 8 2 0 6 -4 9 -8z m592 -7 c-1 -8 -5 -17 -8 -21 -5 -4 -4 16 1 34 3 9 9 -1
7 -13z m-415 -2 c0 -5 2 -16 4 -25 2 -12 -3 -15 -17 -13 -12 3 -23 7 -27 11
-3 4 2 4 11 1 10 -3 20 -2 23 3 4 6 1 10 -4 10 -6 0 -11 5 -11 10 0 11 20 14
21 3z m2191 -17 c5 4 4 -4 -2 -17 -10 -17 -10 -24 -1 -27 6 -2 11 -9 11 -15 0
-27 -25 16 -26 46 -1 18 1 26 3 19 3 -6 9 -9 15 -6z m193 -34 c-1 -9 2 -22 7
-29 5 -7 7 -17 3 -23 -4 -6 1 -23 11 -38 15 -24 16 -25 1 -13 -19 15 -23 1 -5
-17 9 -9 9 -15 -1 -24 -11 -11 -13 -10 -8 5 4 11 3 16 -3 12 -6 -3 -10 -14
-11 -23 0 -11 -3 -12 -6 -4 -5 13 -24 17 -22 5 3 -21 -2 -26 -12 -13 -9 13
-10 13 -6 0 2 -9 13 -14 25 -12 12 2 22 -2 22 -8 0 -6 -12 -8 -31 -5 -23 4
-29 2 -23 -7 4 -7 4 -10 -1 -6 -12 11 -12 88 1 88 5 0 15 -5 22 -12 8 -8 12
-9 12 -1 0 6 -5 13 -11 15 -6 2 -1 12 11 23 l21 19 -5 -29 c-6 -28 -6 -28 4
-6 9 20 7 28 -6 40 -9 9 -14 11 -10 4 3 -6 2 -14 -3 -17 -5 -4 -11 -1 -14 6
-2 7 -3 5 -2 -4 4 -23 -14 -34 -28 -18 -9 10 -9 11 1 6 15 -9 16 10 1 20 -8 4
-7 9 2 14 14 9 22 40 9 40 -4 0 -10 9 -13 21 -6 22 -3 22 48 4 18 -6 18 -5 3
5 -10 6 -18 16 -18 22 0 6 9 3 19 -6 10 -10 18 -25 16 -34z m-2712 31 c-7 -2
-13 -11 -13 -18 0 -8 -5 -17 -12 -21 -6 -4 -9 -3 -6 2 3 5 8 17 11 27 4 9 12
17 19 16 10 0 10 -2 1 -6z m2207 3 c0 -2 -8 -10 -17 -17 -16 -13 -17 -12 -4 4
13 16 21 21 21 13z m-2063 -21 c0 -8 -4 -12 -9 -9 -5 3 -6 10 -3 15 9 13 12
11 12 -6z m439 -12 c-3 -4 6 -12 21 -18 23 -10 25 -12 10 -18 -10 -4 -16 -3
-13 2 3 5 -4 11 -15 14 -18 5 -19 27 -2 27 4 0 3 -3 -1 -7z m901 -8 c0 -8 -4
-12 -9 -9 -5 3 -6 10 -3 15 9 13 12 11 12 -6z m800 -5 c1 -11 -2 -20 -7 -20
-6 0 -7 17 -1 38 3 8 7 -1 8 -18z m-2280 -5 c0 -8 -4 -12 -9 -9 -4 3 -8 0 -8
-7 0 -7 -3 -9 -6 -6 -4 4 -1 13 6 22 15 19 17 19 17 0z m328 -102 c-1 -59 3
-116 7 -126 6 -12 5 -16 -3 -15 -6 2 -14 -3 -17 -11 -2 -8 0 -11 6 -7 6 3 14
1 18 -5 4 -8 3 -9 -4 -5 -7 4 -12 2 -12 -3 0 -6 6 -11 13 -12 9 0 9 -2 -1 -6
-6 -2 -10 -8 -8 -12 3 -4 -7 -8 -20 -9 -15 -1 -23 2 -19 8 4 6 10 8 15 5 5 -3
12 0 16 6 4 8 3 9 -4 5 -7 -4 -12 -2 -12 4 0 6 -5 8 -12 4 -10 -6 -10 -5 -1 7
15 19 10 89 -8 100 -11 7 -11 9 -1 9 7 0 10 5 7 10 -3 6 -1 10 4 10 6 0 11 5
11 11 0 5 -3 8 -8 5 -4 -2 -7 19 -8 48 0 48 2 53 21 49 20 -4 20 -4 0 13 -18
15 -18 16 -1 10 14 -5 17 -2 12 9 -3 9 -2 14 2 11 5 -3 8 -54 7 -113z m1831
102 c-1 -8 -5 -17 -8 -21 -5 -4 -4 16 1 34 3 9 9 -1 7 -13z m202 -10 c-3 -3
-9 2 -12 12 -6 14 -5 15 5 6 7 -7 10 -15 7 -18z m-233 5 c3 -6 -1 -7 -9 -4
-18 7 -21 14 -7 14 6 0 13 -4 16 -10z m-954 -17 c8 -10 9 -14 2 -10 -6 4 -14
3 -18 -3 -4 -6 -11 -8 -16 -4 -6 4 -6 11 2 20 14 17 14 18 30 -3z m1167 -8
c-3 -3 -9 2 -12 12 -6 14 -5 15 5 6 7 -7 10 -15 7 -18z m-1758 6 c0 -6 -4 -12
-8 -15 -5 -3 -9 1 -9 9 0 8 4 15 9 15 4 0 8 -4 8 -9z m1640 -1 c0 -5 -5 -10
-11 -10 -5 0 -7 5 -4 10 3 6 8 10 11 10 2 0 4 -4 4 -10z m94 2 c2 -4 -5 -9
-17 -9 -17 -2 -19 0 -7 7 18 12 18 12 24 2z m-2317 -17 c0 -8 -4 -12 -9 -9 -5
3 -6 10 -3 15 9 13 12 11 12 -6z m736 0 c-3 -9 -8 -14 -10 -11 -3 3 -2 9 2 15
9 16 15 13 8 -4z m1662 -3 c-3 -3 -11 0 -18 7 -9 10 -8 11 6 5 10 -3 15 -9 12
-12z m-2421 -32 c-5 -5 -10 3 -11 18 -1 22 0 24 9 8 6 -10 6 -22 2 -26z m640
31 c3 -5 -1 -11 -9 -14 -9 -4 -12 -1 -8 9 6 16 10 17 17 5z m-34 -18 c0 -5 -5
-15 -10 -23 -7 -12 -9 -10 -7 8 1 19 17 33 17 15z m1816 -5 c4 -7 4 -10 -1 -6
-4 4 -14 3 -22 -4 -11 -8 -12 -7 -7 6 7 19 20 21 30 4z m137 -1 c-3 -4 -8 -6
-11 -3 -3 3 -11 1 -19 -6 -11 -8 -12 -7 -7 5 3 9 14 15 24 14 10 -1 16 -5 13
-10z m-662 -11 c-7 -8 -8 -16 -4 -18 4 -3 2 -3 -6 -1 -9 2 -11 -2 -7 -14 6
-14 5 -15 -5 -6 -10 10 -9 17 6 33 20 22 34 28 16 6z m-1883 -13 c-8 -10 -13
-30 -12 -45 2 -16 -1 -28 -5 -28 -12 0 -6 57 8 74 8 9 16 16 19 16 3 0 -2 -8
-10 -17z m907 8 c3 -5 2 -12 -3 -15 -5 -3 -9 1 -9 9 0 17 3 19 12 6z m1020 -1
c3 -5 1 -10 -4 -10 -6 0 -11 5 -11 10 0 6 2 10 4 10 3 0 8 -4 11 -10z m-3106
-16 c-10 -13 -10 -17 2 -25 9 -5 10 -9 2 -9 -19 0 -26 20 -13 35 7 8 15 15 17
15 3 0 0 -7 -8 -16z m1665 -12 c0 -12 -3 -22 -7 -22 -4 0 -12 0 -18 0 -8 0 -8
5 1 15 7 9 8 15 2 15 -24 0 -20 -30 6 -44 15 -9 21 -15 13 -16 -10 0 -11 -3
-3 -13 7 -8 7 -18 2 -27 -14 -21 -12 -32 3 -24 8 5 8 2 -2 -9 -7 -10 -9 -17
-3 -17 11 0 10 -25 -1 -36 -12 -12 -8 -26 6 -18 6 4 8 3 4 -1 -17 -20 -33 -12
-33 16 0 15 4 25 9 22 5 -3 8 0 5 8 -3 8 -10 14 -16 14 -7 0 -11 5 -9 10 1 6
5 9 10 8 10 -4 9 5 -5 30 -15 26 -18 99 -5 108 19 13 41 2 41 -19z m257 15
c-6 -8 -8 -17 -4 -20 3 -4 12 1 20 11 13 16 13 15 4 -3 -6 -11 -15 -27 -22
-35 -9 -13 -10 -13 -5 2 3 10 1 20 -5 24 -9 5 6 34 18 34 3 0 0 -6 -6 -13z
m774 4 c3 -5 2 -12 -3 -15 -5 -3 -9 1 -9 9 0 17 3 19 12 6z m1006 -4 c-6 -8
-8 -16 -5 -20 3 -3 1 -14 -5 -24 -9 -16 -10 -15 -7 7 2 27 13 50 23 50 3 0 0
-6 -6 -13z m-4031 -9 c0 -11 -22 -10 -39 1 -10 7 -7 9 12 8 15 -1 27 -5 27 -9z
m1374 4 c3 -5 -1 -9 -9 -9 -8 0 -12 4 -9 9 3 4 7 8 9 8 2 0 6 -4 9 -8z m749
-49 c-9 -7 -22 -13 -27 -13 -6 1 0 7 14 15 22 12 21 20 -2 16 -4 0 -5 7 -2 17
5 14 3 14 -10 -2 -9 -11 -16 -15 -16 -10 0 6 6 16 12 22 10 10 16 8 30 -10 16
-21 16 -24 1 -35z m-2454 -18 c0 -36 4 -77 7 -92 6 -22 4 -25 -10 -20 -9 4
-23 10 -31 13 -8 3 -15 1 -15 -5 0 -6 7 -11 15 -11 9 0 21 -5 28 -10 7 -6 24
-19 39 -31 56 -41 81 -130 60 -214 -35 -150 -25 -218 44 -291 60 -65 79 -114
76 -197 -2 -47 -31 -107 -65 -135 -22 -19 -117 -52 -147 -52 -14 0 -50 13 -80
28 -78 38 -113 97 -114 190 0 37 4 74 9 82 20 31 30 95 21 135 -11 53 -33 92
-73 135 -45 48 -62 88 -68 157 -4 47 -1 66 18 103 35 67 108 110 194 114 12 1
25 5 30 10 4 4 -14 6 -42 3 -66 -6 -74 -9 -119 -35 -43 -26 -53 -24 -36 8 7
13 10 48 7 86 -2 35 -2 66 1 69 2 2 19 -2 36 -9 50 -20 146 -10 191 20 11 8
20 14 21 14 1 0 2 -29 3 -65z m818 50 c0 -8 -4 -12 -9 -9 -5 3 -6 10 -3 15 9
13 12 11 12 -6z m3570 -20 c0 -8 -4 -12 -9 -9 -5 3 -6 10 -3 15 9 13 12 11 12
-6z m-2402 -5 c3 -5 1 -10 -4 -10 -6 0 -11 5 -11 10 0 6 2 10 4 10 3 0 8 -4
11 -10z m-1325 -10 c8 -5 11 -12 8 -16 -4 -3 -14 1 -23 10 -18 17 -9 21 15 6z
m720 -25 c14 -19 14 -19 -2 -6 -10 7 -18 18 -18 24 0 6 1 8 3 6 1 -2 9 -13 17
-24z m1230 21 c0 -3 -4 -8 -10 -11 -5 -3 -10 -1 -10 4 0 6 5 11 10 11 6 0 10
-2 10 -4z m1630 -6 c-12 -8 -12 -10 -1 -10 8 0 12 -2 9 -5 -3 -3 -13 -3 -22 1
-19 7 -11 24 12 24 15 0 15 -2 2 -10z m125 0 c-3 -5 -1 -10 6 -10 7 0 10 -2 7
-5 -3 -3 -13 -2 -22 1 -14 5 -15 9 -4 15 17 11 20 11 13 -1z m-1910 -14 c-17
-12 -45 -12 -45 1 0 3 7 3 15 0 8 -4 17 -2 20 3 4 6 11 10 18 10 6 0 2 -6 -8
-14z m124 -3 c-3 -19 2 -33 11 -33 5 0 7 7 4 15 -4 8 -2 15 3 15 5 0 9 -15 9
-34 0 -19 -4 -32 -8 -30 -5 3 -5 10 -2 16 4 6 1 9 -5 7 -20 -7 -15 -23 10 -36
l24 -13 -23 0 c-14 0 -21 -4 -17 -11 4 -6 14 -8 24 -4 11 4 13 3 5 -5 -13 -13
-40 -4 -48 16 -3 9 -1 12 4 9 6 -3 10 -2 10 4 0 5 -4 12 -8 15 -7 4 -8 57 -3
74 2 6 11 1 10 -5z m427 -2 c-3 -5 1 -14 9 -21 8 -7 15 -17 15 -23 0 -5 -9 2
-20 16 -23 28 -25 37 -9 37 5 0 8 -4 5 -9z m-2696 -23 c0 -6 -6 -5 -15 2 -8 7
-15 14 -15 16 0 2 7 1 15 -2 8 -4 15 -11 15 -16z m2575 12 c18 -8 18 -9 2 -9
-10 -1 -15 -5 -12 -11 3 -6 -1 -7 -9 -4 -9 3 -16 12 -16 20 0 16 6 16 35 4z
m-1039 -12 c4 -6 3 -8 -4 -4 -5 3 -13 0 -15 -6 -3 -8 -6 -6 -6 5 -1 19 14 23
25 5z m619 -54 c1 -30 -2 -57 -6 -60 -5 -3 -6 2 -3 11 5 12 2 14 -12 8 -18 -7
-18 -6 -1 11 17 18 23 37 10 35 -20 -3 -33 2 -33 12 0 8 4 8 14 0 10 -8 16 -9
21 -1 3 5 1 10 -6 10 -8 0 -9 3 0 13 6 8 9 17 6 20 -3 4 -2 5 2 2 4 -3 8 -30
8 -61z m1780 45 c-6 -32 -12 -34 -12 -4 0 14 3 25 8 25 4 0 6 -10 4 -21z m122
-1 c-3 -8 -6 -5 -6 6 -1 11 2 17 5 13 3 -3 4 -12 1 -19z m-611 -10 c-27 -15
-55 -18 -62 -6 -4 6 -2 8 4 4 6 -3 13 -2 17 3 3 6 13 7 22 4 11 -4 14 -3 9 5
-5 8 -2 10 10 5 15 -5 15 -7 0 -15z m-3463 -13 c-7 -21 -12 -19 -10 4 0 11 5
18 9 15 4 -3 5 -11 1 -19z m521 -6 c-3 -5 -11 -9 -17 -8 -8 0 -8 2 1 6 10 4
10 8 0 21 -12 15 -11 16 4 3 10 -7 15 -17 12 -22z m301 21 c3 -5 1 -10 -4 -10
-6 0 -11 5 -11 10 0 6 2 10 4 10 3 0 8 -4 11 -10z m566 -13 c-10 -9 -11 -8 -5
6 3 10 9 15 12 12 3 -3 0 -11 -7 -18z m1665 11 c3 -4 -1 -5 -10 -4 -8 1 -18 5
-22 8 -3 4 1 5 10 4 8 -1 18 -5 22 -8z m1029 -12 c8 4 15 2 15 -3 0 -5 -10 -9
-23 -9 -16 0 -23 6 -24 21 -2 18 -1 18 8 3 5 -10 16 -15 24 -12z m-1511 -9
c-1 -9 4 -13 12 -10 8 3 11 10 7 16 -4 6 -1 7 7 2 10 -6 10 -10 -2 -19 -13
-10 -14 -16 -4 -34 7 -13 11 -53 11 -90 -1 -37 2 -72 7 -78 9 -12 -20 -30 -30
-19 -3 3 0 5 6 5 7 0 12 4 12 8 0 14 -29 10 -34 -5 -6 -14 27 -37 38 -26 3 3
6 1 6 -6 0 -16 -32 -10 -47 9 -6 8 -8 22 -4 30 4 8 7 31 6 50 -1 19 3 41 8 48
6 8 6 12 -2 12 -8 0 -10 8 -6 21 5 14 3 19 -3 15 -6 -4 -8 2 -5 14 3 11 9 17
14 14 5 -3 7 -9 5 -13 -3 -4 -1 -13 3 -20 6 -9 11 -10 15 -2 4 6 2 11 -4 11
-6 0 -9 4 -5 9 3 6 -5 19 -17 30 -13 13 -17 21 -9 21 11 0 11 3 0 17 -12 14
-12 16 1 11 8 -3 14 -12 14 -21z m-2194 -2 c11 -13 10 -14 -4 -9 -9 3 -16 10
-16 15 0 13 6 11 20 -6z m280 7 c0 -5 -7 -9 -15 -9 -8 0 -12 4 -9 9 3 4 9 8
15 8 5 0 9 -4 9 -8z m158 -7 c3 -3 1 -5 -4 -6 -5 0 -16 -2 -25 -4 -9 -1 -16 3
-16 10 0 12 33 12 45 0z m720 3 c-2 -7 3 -12 10 -10 8 1 11 -2 7 -8 -5 -8 -11
-8 -21 1 -7 6 -11 15 -8 20 8 13 14 11 12 -3z m-1523 -18 c-3 -5 -12 -10 -18
-10 -7 0 -6 4 3 10 19 12 23 12 15 0z m3940 -20 c-2 -42 -11 -46 -12 -5 0 19
3 35 6 35 4 0 7 -13 6 -30z m-3120 10 c3 -5 1 -10 -4 -10 -6 0 -11 5 -11 10 0
6 2 10 4 10 3 0 8 -4 11 -10z m430 0 c3 -6 -1 -7 -9 -4 -18 7 -21 14 -7 14 6
0 13 -4 16 -10z m1175 0 c0 -5 -5 -10 -11 -10 -5 0 -7 5 -4 10 3 6 8 10 11 10
2 0 4 -4 4 -10z m490 -4 c0 -2 -8 -10 -17 -17 -16 -13 -17 -12 -4 4 13 16 21
21 21 13z m242 -39 c4 -1 14 7 23 18 16 20 16 20 6 0 -5 -11 -19 -21 -30 -22
-17 -1 -21 4 -20 25 1 26 1 26 7 4 4 -13 10 -24 14 -25z m902 27 c3 -8 11 -12
17 -8 7 4 9 3 6 -4 -10 -15 -40 -8 -43 11 -3 21 12 22 20 1z m-2537 -9 c0 -8
-4 -12 -9 -9 -5 3 -6 10 -3 15 9 13 12 11 12 -6z m-1022 -33 c-2 -9 -4 -18 -4
-20 -1 -2 -6 0 -11 3 -8 5 -8 11 -1 19 7 9 7 17 -2 26 -10 12 -9 12 5 2 9 -7
15 -21 13 -30z m145 34 c0 -2 -7 -9 -15 -16 -13 -11 -14 -10 -9 4 5 14 24 23
24 12z m169 -33 c-6 -7 -8 -17 -5 -22 4 -5 -3 -16 -14 -24 -11 -7 -18 -16 -15
-19 3 -2 -1 -5 -8 -5 -8 0 -14 6 -14 14 0 7 2 11 5 8 3 -2 13 0 24 6 15 8 17
14 8 24 -8 9 -7 14 5 18 9 4 12 13 9 24 -5 15 -4 15 4 3 8 -10 8 -18 1 -27z
m1611 29 c0 -5 -7 -9 -15 -9 -8 0 -12 4 -9 9 3 4 9 8 15 8 5 0 9 -4 9 -8z
m619 5 c-2 -2 -11 -8 -20 -15 -12 -9 -16 -9 -16 1 0 7 9 14 20 14 11 1 18 1
16 0z m-1796 -20 c3 -8 -1 -14 -8 -14 -7 0 -11 6 -8 14 3 7 6 13 8 13 2 0 5
-6 8 -13z m1037 -15 c0 -8 -1 -13 -3 -11 -1 2 -9 12 -16 22 -12 15 -12 17 3
11 9 -3 16 -13 16 -22z m-1920 3 c0 -8 -2 -15 -4 -15 -2 0 -6 7 -10 15 -3 8
-1 15 4 15 6 0 10 -7 10 -15z m2677 -13 c-10 -10 -14 -22 -10 -25 3 -4 2 -7
-3 -7 -5 0 -15 10 -23 21 -12 20 -11 21 7 17 13 -4 23 0 27 10 3 8 8 12 12 8
3 -3 -1 -14 -10 -24z m-597 -1 c0 -11 -23 -31 -34 -31 -6 0 -3 5 7 11 9 6 15
15 12 20 -4 5 -11 6 -17 3 -7 -4 -8 -2 -4 4 7 11 36 6 36 -7z m-1517 -6 c-3
-9 -8 -14 -10 -11 -3 3 -2 9 2 15 9 16 15 13 8 -4z m3012 -16 c1 -11 -1 -22
-5 -24 -3 -2 -6 9 -6 25 0 33 9 32 11 -1z m-3160 11 c3 -6 -1 -7 -9 -4 -18 7
-21 14 -7 14 6 0 13 -4 16 -10z m466 -4 c-9 -11 -9 -15 1 -19 9 -4 9 -6 1 -6
-19 -1 -27 20 -12 30 20 13 23 11 10 -5z m-875 -8 c3 -4 -1 -5 -10 -4 -8 1
-18 5 -22 8 -3 4 1 5 10 4 8 -1 18 -5 22 -8z m1929 -6 c-3 -3 -11 0 -18 7 -9
10 -8 11 6 5 10 -3 15 -9 12 -12z m-1655 -6 c0 -3 -4 -8 -10 -11 -5 -3 -10 -1
-10 4 0 6 5 11 10 11 6 0 10 -2 10 -4z m180 0 c0 -2 -8 -10 -17 -17 -16 -13
-17 -12 -4 4 13 16 21 21 21 13z m100 -6 c0 -5 -2 -10 -4 -10 -3 0 -8 5 -11
10 -3 6 -1 10 4 10 6 0 11 -4 11 -10z m3135 0 c3 -5 1 -10 -4 -10 -6 0 -11 5
-11 10 0 6 2 10 4 10 3 0 8 -4 11 -10z m-3564 -23 c-6 -8 -9 -23 -5 -33 5 -17
5 -18 -6 -2 -8 13 -8 23 0 39 7 11 14 18 17 15 3 -3 1 -12 -6 -19z m-131 3 c0
-5 -2 -10 -4 -10 -3 0 -8 5 -11 10 -3 6 -1 10 4 10 6 0 11 -4 11 -10z m735 0
c3 -5 1 -10 -4 -10 -6 0 -11 5 -11 10 0 6 2 10 4 10 3 0 8 -4 11 -10z m145 6
c0 -3 -4 -8 -10 -11 -5 -3 -10 -1 -10 4 0 6 5 11 10 11 6 0 10 -2 10 -4z
m1800 -21 c0 -2 -5 -7 -12 -11 -7 -5 -8 -3 -3 6 6 10 4 12 -8 7 -17 -6 -31 5
-20 16 5 6 43 -10 43 -18z m-2405 6 c3 -5 0 -13 -6 -17 -7 -4 -9 -3 -5 4 3 5
0 13 -6 15 -9 4 -10 6 -1 6 6 1 14 -3 18 -8z m1795 -1 c11 -7 11 -10 2 -10 -7
0 -10 -5 -6 -12 4 -7 3 -8 -5 -4 -6 4 -9 11 -6 16 3 4 -1 11 -7 13 -7 3 -8 6
-3 6 6 0 17 -4 25 -9z m1506 -45 c0 -30 -2 -55 -5 -55 -3 0 -7 25 -7 55 -1 30
1 55 5 55 3 0 6 -25 7 -55z m-3142 34 c-2 -4 1 -9 8 -11 7 -3 8 -7 3 -10 -6
-2 -18 3 -27 13 -16 17 -16 18 2 16 10 -1 17 -4 14 -8z m447 -6 c-6 -11 -6
-24 0 -35 7 -13 6 -16 -4 -12 -16 6 -17 45 -2 56 15 12 17 10 6 -9z m1064 7
c-3 -5 -12 -10 -18 -10 -7 0 -6 4 3 10 19 12 23 12 15 0z m1312 -5 c0 -8 -4
-12 -9 -9 -5 3 -6 10 -3 15 9 13 12 11 12 -6z m-437 2 c0 -2 -10 -12 -22 -23
l-23 -19 19 23 c18 21 26 27 26 19z m-2401 -30 c-3 -25 1 -38 11 -32 6 3 7 -1
4 -10 -5 -11 -2 -14 12 -8 14 5 13 1 -6 -16 -17 -16 -20 -21 -8 -17 15 5 16 3
5 -14 -11 -18 -12 -19 -18 -2 -4 9 -5 28 -2 41 4 22 2 23 -14 10 -16 -13 -17
-12 -4 4 11 14 11 20 0 34 -12 14 -12 16 0 8 11 -6 13 -4 8 9 -4 10 -3 15 3
11 6 -4 10 -12 9 -18z m1663 -9 c-6 -6 -12 -6 -17 3 -5 8 -4 10 3 5 7 -4 12 0
13 11 0 12 2 13 6 5 3 -8 1 -18 -5 -24z m1613 -1 c1 -7 6 -11 11 -10 6 1 10
-11 10 -28 0 -34 -2 -35 -24 -12 -16 16 -16 16 1 10 13 -5 17 -3 14 5 -2 7 -9
12 -14 11 -5 -1 -9 9 -9 22 0 24 11 25 11 2z m-4048 -15 c-8 -10 -13 -23 -11
-30 1 -7 0 -8 -3 -2 -2 5 -10 7 -16 3 -7 -3 -2 5 11 19 12 13 19 28 15 33 -5
4 -2 5 5 1 11 -7 11 -11 -1 -24z m648 19 c3 -5 2 -12 -3 -15 -5 -3 -9 1 -9 9
0 17 3 19 12 6z m-149 -13 c4 4 3 0 -4 -9 -7 -9 -10 -23 -6 -32 3 -8 1 -18 -5
-21 -6 -4 -8 -14 -5 -24 5 -14 4 -14 -4 -2 -6 8 -7 19 -3 25 10 12 8 45 -4 65
-7 12 -6 13 7 3 8 -7 19 -9 24 -5z m2057 -55 c16 1 22 -4 23 -19 1 -12 -4 -21
-10 -20 -6 0 -12 -3 -13 -9 -2 -5 1 -10 6 -10 5 0 13 -4 18 -9 5 -5 3 -6 -4
-2 -8 4 -13 2 -14 -6 0 -10 -2 -10 -6 1 -5 11 -7 11 -14 0 -7 -10 -8 -9 -6 6
1 11 6 25 10 31 4 7 0 17 -8 24 -8 7 -14 20 -14 29 1 14 2 14 6 -1 3 -11 13
-17 26 -15z m454 12 c0 -8 -4 -12 -9 -9 -5 3 -6 10 -3 15 9 13 12 11 12 -6z
m-2352 -5 c3 -6 -1 -7 -9 -4 -18 7 -21 14 -7 14 6 0 13 -4 16 -10z m258 -5 c4
-8 3 -16 -1 -19 -4 -3 -9 4 -9 15 -2 23 3 25 10 4z m327 11 c0 -2 -7 -7 -16
-10 -8 -3 -12 -2 -9 4 6 10 25 14 25 6z m-1233 -21 c0 -8 -4 -15 -9 -15 -10 0
-11 14 -1 23 9 10 10 9 10 -8z m3921 -3 c2 -7 -1 -12 -8 -12 -6 0 -9 4 -6 9 4
5 1 12 -4 14 -6 3 -5 4 2 3 6 -1 14 -8 16 -14z m-3283 -1 c3 -5 2 -12 -3 -15
-5 -3 -9 1 -9 9 0 17 3 19 12 6z m2985 5 c0 -3 -4 -8 -10 -11 -5 -3 -10 -1
-10 4 0 6 5 11 10 11 6 0 10 -2 10 -4z m418 -27 c-3 -8 -7 -3 -11 10 -4 17 -3
21 5 13 5 -5 8 -16 6 -23z m-3551 -11 c-3 -7 -5 -2 -5 12 0 14 2 19 5 13 2 -7
2 -19 0 -25z m-514 8 c4 -10 1 -13 -8 -9 -8 3 -12 9 -9 14 7 12 11 11 17 -5z
m635 -11 c-3 -3 -9 2 -12 12 -6 14 -5 15 5 6 7 -7 10 -15 7 -18z m192 11 c0
-3 -4 -8 -10 -11 -5 -3 -10 -1 -10 4 0 6 5 11 10 11 6 0 10 -2 10 -4z m-465
-16 c3 -5 1 -10 -4 -10 -6 0 -11 5 -11 10 0 6 2 10 4 10 3 0 8 -4 11 -10z
m3260 0 c3 -5 1 -10 -4 -10 -6 0 -11 5 -11 10 0 6 2 10 4 10 3 0 8 -4 11 -10z
m-2832 -7 c-7 -2 -19 -2 -25 0 -7 3 -2 5 12 5 14 0 19 -2 13 -5z m3164 1 c-3
-3 -12 -4 -19 -1 -8 3 -5 6 6 6 11 1 17 -2 13 -5z m128 -3 c3 -5 2 -12 -3 -15
-5 -3 -9 1 -9 9 0 17 3 19 12 6z m-3304 -38 c13 -16 12 -17 -3 -4 -17 13 -22
21 -14 21 2 0 10 -8 17 -17z m1496 -5 c-3 -8 -6 -5 -6 6 -1 11 2 17 5 13 3 -3
4 -12 1 -19z m-2267 -8 c0 -5 -4 -10 -10 -10 -5 0 -10 5 -10 10 0 6 5 10 10
10 6 0 10 -4 10 -10z m525 -20 c3 -6 -1 -7 -9 -4 -18 7 -21 14 -7 14 6 0 13
-4 16 -10z m795 -40 c0 -5 -5 -10 -11 -10 -5 0 -7 5 -4 10 3 6 8 10 11 10 2 0
4 -4 4 -10z m654 -32 c-3 -4 -12 -4 -21 -1 -12 5 -14 3 -8 -7 5 -9 4 -11 -4
-6 -16 10 -4 25 19 23 10 -1 17 -5 14 -9z m90 -6 c3 -5 -1 -9 -9 -9 -8 0 -12
4 -9 9 3 4 7 8 9 8 2 0 6 -4 9 -8z m-218 -34 c4 -7 4 -10 -1 -6 -9 9 -37 -11
-31 -21 3 -4 -4 -8 -16 -8 -17 -2 -16 1 9 23 33 28 30 27 39 12z m-58 -113
c-3 -3 -9 2 -12 12 -6 14 -5 15 5 6 7 -7 10 -15 7 -18z m-47 -8 c-10 -9 -11
-8 -5 6 3 10 9 15 12 12 3 -3 0 -11 -7 -18z m25 -9 c-3 -13 -5 -25 -6 -28 -2
-3 -2 -8 -1 -12 0 -5 -3 -8 -9 -8 -10 0 -8 23 5 53 10 24 16 21 11 -5z m777 5
c-7 -2 -19 -2 -25 0 -7 3 -2 5 12 5 14 0 19 -2 13 -5z m1131 -5 c-3 -4 -11 -5
-19 -1 -21 7 -19 12 4 10 11 0 18 -5 15 -9z m143 6 c-3 -3 -12 -4 -19 -1 -8 3
-5 6 6 6 11 1 17 -2 13 -5z m73 2 c0 -11 -19 -15 -25 -6 -3 5 1 10 9 10 9 0
16 -2 16 -4z m277 -118 c34 -42 81 -61 154 -61 38 -1 69 -3 69 -5 0 -2 -11
-18 -24 -35 -13 -18 -30 -50 -37 -72 -19 -58 -25 -62 -56 -33 -44 40 -79 59
-113 60 -17 1 -33 5 -36 10 -3 4 -14 4 -24 -2 -29 -15 -30 0 -4 54 13 28 24
62 24 78 0 34 21 37 47 6z m-2402 -8 c3 -5 2 -10 -4 -10 -5 0 -13 5 -16 10 -3
6 -2 10 4 10 5 0 13 -4 16 -10z m-40 -20 c3 -5 1 -10 -4 -10 -6 0 -11 5 -11
10 0 6 2 10 4 10 3 0 8 -4 11 -10z m-1325 -14 c0 -3 -4 -8 -10 -11 -5 -3 -10
-1 -10 4 0 6 5 11 10 11 6 0 10 -2 10 -4z m137 -10 c0 -8 -6 -12 -15 -9 -11 5
-11 7 0 14 7 5 13 9 14 9 0 0 1 -6 1 -14z m100 0 c0 -8 -6 -12 -14 -9 -7 3
-21 -1 -30 -8 -10 -8 -14 -9 -10 -2 5 7 -1 13 -15 16 -13 2 -6 4 15 4 20 0 40
3 44 6 9 10 10 9 10 -7z m583 4 c0 -5 -10 -10 -22 -9 -22 0 -22 1 -3 9 11 5
21 9 23 9 1 1 2 -3 2 -9z m1935 -8 c-3 -3 -11 0 -18 7 -9 10 -8 11 6 5 10 -3
15 -9 12 -12z m311 6 c47 0 83 -3 80 -5 -3 -3 -21 -5 -40 -5 -37 0 -49 -13
-18 -21 16 -4 16 -5 -1 -6 -10 0 -20 6 -23 14 -4 8 -13 15 -21 15 -8 0 -12 -4
-9 -8 12 -20 -10 -30 -34 -16 l-25 14 29 -6 c21 -5 27 -4 22 5 -4 6 -21 11
-37 11 -28 0 -29 -2 -18 -22 6 -13 8 -20 4 -15 -5 4 -16 0 -25 -8 -15 -14 -19
-14 -29 -1 -7 8 -19 12 -27 9 -8 -3 -14 1 -14 8 0 11 -3 11 -11 -1 -8 -12 -9
-10 -4 8 4 13 2 22 -4 22 -10 0 -15 -13 -12 -32 0 -4 -11 -5 -25 -2 -18 3 -23
1 -18 -7 5 -8 3 -9 -7 -4 -7 5 -25 9 -39 10 -14 1 -31 5 -38 9 -7 4 -12 2 -12
-5 0 -9 -3 -9 -14 0 -11 9 -15 9 -19 -1 -2 -7 -4 0 -4 16 0 23 1 26 9 13 5
-10 14 -17 20 -17 7 0 7 5 -1 14 -10 12 -9 14 6 11 10 -1 17 -8 16 -14 -4 -15
30 -14 45 1 8 8 44 13 95 14 45 0 74 -1 65 -3 -21 -5 -22 -13 -5 -37 11 -16
15 -16 25 -3 7 8 12 19 11 23 -4 22 2 35 12 28 6 -3 49 -6 95 -6z m294 1 c0
-4 -9 -7 -19 -6 -11 0 -18 4 -16 7 6 9 35 8 35 -1z m-3293 -5 c-3 -3 -12 -4
-19 -1 -8 3 -5 6 6 6 11 1 17 -2 13 -5z m236 -1 c-7 -2 -19 -2 -25 0 -7 3 -2
5 12 5 14 0 19 -2 13 -5z m74 1 c-3 -3 -12 -4 -19 -1 -8 3 -5 6 6 6 11 1 17
-2 13 -5z m53 -9 c-6 -8 -8 -20 -4 -27 5 -10 4 -10 -6 -1 -11 10 -11 15 0 28
7 8 15 15 17 15 3 0 0 -7 -7 -15z m40 11 c0 -2 -8 -10 -17 -17 -16 -13 -17
-12 -4 4 13 16 21 21 21 13z m140 -10 c-7 -7 -13 -7 -20 0 -6 6 -3 10 10 10
13 0 16 -4 10 -10z m1525 3 c-5 -6 -55 0 -55 7 0 3 13 3 29 2 16 -1 28 -5 26
-9z m68 -2 c3 -8 0 -14 -7 -14 -7 0 -13 6 -13 14 0 7 4 13 8 13 4 0 9 -6 12
-13z m54 7 c-3 -3 -12 -4 -19 -1 -8 3 -5 6 6 6 11 1 17 -2 13 -5z m63 0 c0 -8
-19 -13 -24 -6 -3 5 1 9 9 9 8 0 15 -2 15 -3z m72 -8 c7 4 8 2 4 -5 -9 -13
-26 -5 -25 12 0 9 2 8 6 -1 2 -6 10 -9 15 -6z m71 -6 c-3 -12 -8 -19 -11 -16
-5 6 5 36 12 36 2 0 2 -9 -1 -20z m67 14 c0 -8 -19 -13 -24 -6 -3 5 1 9 9 9 8
0 15 -2 15 -3z m57 -16 c-3 -8 -6 -5 -6 6 -1 11 2 17 5 13 3 -3 4 -12 1 -19z
m29 7 c-1 -8 -8 -21 -16 -28 -10 -10 -11 -9 -4 3 5 8 9 18 10 23 3 14 4 17 8
17 2 0 3 -7 2 -15z m571 9 c-3 -3 -12 -4 -19 -1 -8 3 -5 6 6 6 11 1 17 -2 13
-5z m76 -1 c-7 -2 -19 -2 -25 0 -7 3 -2 5 12 5 14 0 19 -2 13 -5z m44 1 c-3
-3 -12 -4 -19 -1 -8 3 -5 6 6 6 11 1 17 -2 13 -5z m-2977 -14 c-8 -5 -19 -10
-25 -10 -5 0 -3 5 5 10 8 5 20 10 25 10 6 0 3 -5 -5 -10z m654 2 c3 -5 -1 -9
-9 -9 -8 0 -12 4 -9 9 3 4 7 8 9 8 2 0 6 -4 9 -8z m2642 -4 c3 -4 -1 -5 -10
-4 -8 1 -18 5 -22 8 -3 4 1 5 10 4 8 -1 18 -5 22 -8z m-3229 -12 c0 -15 -21
-16 -34 -1 -4 4 -3 5 4 1 6 -3 14 -2 18 4 8 14 12 13 12 -4z m-102 -5 c3 -5 0
-13 -6 -17 -7 -4 -9 -3 -5 4 3 5 0 13 -6 15 -9 4 -10 6 -1 6 6 1 14 -3 18 -8z
m205 -1 c0 -5 -4 -10 -10 -10 -5 0 -10 5 -10 10 0 6 5 10 10 10 6 0 10 -4 10
-10z m65 -8 c-3 -3 -11 0 -18 7 -9 10 -8 11 6 5 10 -3 15 -9 12 -12z m1469 2
c3 -8 2 -12 -4 -9 -6 3 -10 10 -10 16 0 14 7 11 14 -7z m71 -4 c3 -5 1 -10 -4
-10 -6 0 -11 5 -11 10 0 6 2 10 4 10 3 0 8 -4 11 -10z m528 -5 c-3 -9 -8 -14
-10 -11 -3 3 -2 9 2 15 9 16 15 13 8 -4z m-3108 -36 c11 -23 31 -54 46 -70 14
-15 24 -31 21 -34 -3 -3 -22 -5 -43 -5 -21 0 -41 -4 -44 -10 -3 -5 -14 -10
-23 -10 -10 0 -25 -9 -35 -20 -9 -11 -16 -20 -14 -20 1 0 24 11 51 24 52 25
117 28 167 8 65 -26 130 -112 134 -177 3 -55 17 -100 45 -140 37 -54 56 -69
115 -90 67 -25 96 -46 130 -95 32 -47 36 -57 37 -117 2 -91 -64 -174 -153
-194 -128 -29 -249 61 -262 196 -6 65 -12 80 -57 140 -32 43 -49 55 -108 79
-110 43 -161 110 -160 211 1 61 -2 72 -53 181 -34 72 -35 76 -11 73 45 -6 123
36 165 88 25 31 31 29 52 -18z m1015 31 c0 -5 -7 -7 -15 -4 -8 4 -15 8 -15 10
0 2 7 4 15 4 8 0 15 -4 15 -10z m90 4 c0 -8 -19 -13 -24 -6 -3 5 1 9 9 9 8 0
15 -2 15 -3z m60 0 c0 -8 -19 -13 -24 -6 -3 5 1 9 9 9 8 0 15 -2 15 -3z m-217
-31 c-7 -2 -19 -2 -25 0 -7 3 -2 5 12 5 14 0 19 -2 13 -5z m2124 1 c-3 -3 -12
-4 -19 -1 -8 3 -5 6 6 6 11 1 17 -2 13 -5z m1228 -48 c64 -43 96 -101 97 -175
0 -90 -64 -175 -157 -206 -109 -36 -165 -103 -180 -215 -8 -54 -15 -72 -48
-117 -25 -36 -76 -72 -112 -79 -5 -1 -23 -5 -40 -8 -16 -3 -42 -15 -57 -26
-15 -11 -32 -20 -37 -20 -6 0 -28 -18 -50 -40 -39 -39 -60 -50 -62 -30 -1 6
-3 15 -4 20 -1 6 -3 14 -4 19 -2 14 -61 77 -61 65 0 -6 7 -17 15 -24 8 -7 15
-19 15 -26 0 -8 5 -14 10 -14 6 0 10 -9 10 -21 0 -11 5 -29 10 -40 15 -26 -14
-120 -48 -161 -14 -17 -50 -41 -79 -54 -44 -20 -67 -23 -145 -21 -85 2 -97 0
-143 -26 -32 -18 -63 -46 -87 -80 -52 -76 -105 -110 -179 -115 -34 -3 -72 1
-89 8 -23 9 -33 10 -44 1 -8 -7 -22 -8 -37 -3 -22 9 -38 6 -121 -24 l-38 -14
-1 65 c-1 36 -2 68 -3 73 -2 12 -50 87 -58 90 -17 7 -7 22 15 22 12 0 49 12
82 25 33 14 61 25 63 25 1 0 2 -10 2 -22 0 -26 13 -16 17 14 7 48 44 89 107
121 40 20 60 23 140 22 84 -1 101 2 148 25 33 17 65 43 86 71 58 77 66 85 107
104 77 37 145 37 202 0 25 -17 40 -15 28 4 -3 6 -13 11 -21 11 -8 0 -14 5 -14
10 0 6 -10 10 -22 10 -17 0 -7 13 48 65 l69 65 3 -30 c2 -17 7 -30 13 -30 5 0
9 -6 9 -13 0 -18 69 -87 87 -87 7 0 13 -4 13 -10 0 -5 11 -10 25 -10 14 0 25
4 25 10 0 5 -3 9 -7 8 -15 -4 -55 14 -80 35 -26 23 -65 82 -71 107 -5 20 -4
81 2 100 13 47 19 60 27 60 5 0 9 5 9 11 0 19 65 70 105 81 98 28 176 115 189
209 4 30 8 60 8 67 1 6 5 12 10 12 4 0 8 6 8 14 0 20 62 81 100 99 61 28 147
24 195 -7z m-1201 -155 c-8 -8 -43 -8 -38 0 2 4 13 7 24 6 10 -1 17 -3 14 -6z
m41 -1 c3 -6 -1 -7 -9 -4 -18 7 -21 14 -7 14 6 0 13 -4 16 -10z m140 0 c3 -6
-1 -7 -9 -4 -18 7 -21 14 -7 14 6 0 13 -4 16 -10z m-1297 -25 c-3 -3 -9 2 -12
12 -6 14 -5 15 5 6 7 -7 10 -15 7 -18z m-250 -10 c-3 -3 -9 2 -12 12 -6 14 -5
15 5 6 7 -7 10 -15 7 -18z m-23 -3 c-3 -3 -11 0 -18 7 -9 10 -8 11 6 5 10 -3
15 -9 12 -12z m274 -32 c11 -24 11 -24 -3 -6 -9 11 -16 24 -16 30 0 12 5 7 19
-24z m386 1 c3 -5 2 -12 -3 -15 -5 -3 -9 1 -9 9 0 17 3 19 12 6z m-384 -38
c13 -16 12 -17 -3 -4 -17 13 -22 21 -14 21 2 0 10 -8 17 -17z m425 -51 c0 -20
-5 -43 -9 -49 -5 -8 -3 -13 5 -14 10 0 10 -2 -1 -6 -11 -4 -11 -7 0 -14 7 -4
10 -11 6 -15 -14 -15 -21 8 -21 80 -1 55 2 72 10 65 7 -5 11 -26 10 -47z
m-739 -6 c0 -8 -8 -11 -21 -8 -19 5 -19 6 0 13 10 4 19 8 20 8 0 1 1 -5 1 -13z
m2027 -15 c4 -5 -3 -7 -14 -4 -23 6 -26 13 -6 13 8 0 17 -4 20 -9z m-1704 -7
c0 -8 -19 -13 -24 -6 -3 5 1 9 9 9 8 0 15 -2 15 -3z m1220 2 c0 -3 -4 -8 -10
-11 -5 -3 -10 -1 -10 4 0 6 5 11 10 11 6 0 10 -2 10 -4z m-1585 -15 c3 -5 2
-12 -3 -15 -5 -3 -9 1 -9 9 0 17 3 19 12 6z m-25 -5 c0 -2 -7 -9 -15 -16 -13
-11 -14 -10 -9 4 5 14 24 23 24 12z m865 -6 c3 -5 1 -10 -4 -10 -6 0 -11 5
-11 10 0 6 2 10 4 10 3 0 8 -4 11 -10z m780 -48 c-3 -3 -11 0 -18 7 -9 10 -8
11 6 5 10 -3 15 -9 12 -12z m99 10 c3 -5 -1 -9 -9 -9 -8 0 -12 4 -9 9 3 4 7 8
9 8 2 0 6 -4 9 -8z m-1409 -31 c-1 -9 2 -21 7 -27 5 -7 3 -14 -5 -17 -10 -4
-13 2 -11 19 1 13 -2 24 -7 24 -5 0 -9 4 -9 8 0 5 6 9 14 9 7 0 13 -7 11 -16z
m511 -57 c1 -9 0 -13 -4 -10 -3 4 -7 14 -8 22 -1 9 0 13 4 10 3 -4 7 -14 8
-22z m-1913 -18 c3 4 15 0 26 -8 12 -8 18 -17 16 -20 -3 -3 7 -3 22 -1 22 4
25 2 13 -6 -11 -8 -12 -11 -2 -11 7 0 21 -8 30 -17 16 -16 16 -16 -5 -11 -13
3 -23 2 -23 -3 0 -5 8 -9 18 -10 15 0 15 -1 1 -7 -9 -4 -15 -15 -13 -25 1 -9
-2 -14 -8 -11 -5 3 -7 8 -4 11 2 3 -6 15 -20 28 -13 12 -24 27 -24 33 0 10
-36 42 -76 70 -11 7 -5 6 12 -2 17 -9 34 -13 37 -10z m1412 -16 c3 -5 1 -10
-4 -10 -6 0 -11 5 -11 10 0 6 2 10 4 10 3 0 8 -4 11 -10z m-1010 -20 c3 -6 -1
-7 -9 -4 -18 7 -21 14 -7 14 6 0 13 -4 16 -10z m50 0 c3 -5 1 -10 -4 -10 -6 0
-11 5 -11 10 0 6 2 10 4 10 3 0 8 -4 11 -10z m735 6 c0 -2 -7 -7 -16 -10 -8
-3 -12 -2 -9 4 6 10 25 14 25 6z m705 -26 c1 -11 -2 -20 -7 -20 -4 0 -7 11 -6
25 3 28 11 24 13 -5z m52 14 c-3 -3 -12 -4 -19 -1 -8 3 -5 6 6 6 11 1 17 -2
13 -5z m853 -4 c0 -5 -2 -10 -4 -10 -3 0 -8 5 -11 10 -3 6 -1 10 4 10 6 0 11
-4 11 -10z m-1365 -10 c3 -5 1 -10 -4 -10 -6 0 -11 5 -11 10 0 6 2 10 4 10 3
0 8 -4 11 -10z m70 0 c3 -6 -1 -7 -9 -4 -18 7 -21 14 -7 14 6 0 13 -4 16 -10z
m1536 -35 c9 -17 8 -18 -3 -4 -7 9 -19 15 -26 13 -7 -1 -8 0 -3 2 6 3 7 13 4
22 -4 15 -3 15 6 2 7 -8 16 -24 22 -35z m-438 28 c-7 -2 -19 -2 -25 0 -7 3 -2
5 12 5 14 0 19 -2 13 -5z m-1969 -19 c3 -8 2 -12 -4 -9 -6 3 -10 10 -10 16 0
14 7 11 14 -7z m462 -3 c1 -6 0 -7 -2 -2 -3 5 -17 7 -32 5 -19 -3 -23 -2 -13
5 18 12 44 7 47 -8z m938 11 c3 -5 -1 -9 -9 -9 -8 0 -12 4 -9 9 3 4 7 8 9 8 2
0 6 -4 9 -8z m684 -17 c2 -2 -7 -2 -21 -1 -13 0 -24 6 -24 13 0 9 6 9 21 1 12
-6 22 -12 24 -13z m-58 11 c0 -3 -4 -8 -10 -11 -5 -3 -10 -1 -10 4 0 6 5 11
10 11 6 0 10 -2 10 -4z m95 -6 c-3 -5 -12 -10 -18 -10 -7 0 -6 4 3 10 19 12
23 12 15 0z m272 -52 c-6 -4 -16 -8 -22 -8 -5 0 -4 4 4 9 8 5 11 16 7 27 -6
18 -5 17 9 0 12 -16 12 -22 2 -28z m-222 12 c-3 -5 -12 -10 -18 -10 -7 0 -6 4
3 10 19 12 23 12 15 0z m95 -4 c0 -2 -7 -7 -16 -10 -8 -3 -12 -2 -9 4 6 10 25
14 25 6z m-2610 -88 c0 -4 3 -7 8 -6 4 1 20 -4 35 -10 16 -7 37 -12 48 -12 10
0 19 -6 19 -12 0 -9 3 -9 8 -2 4 5 26 10 50 10 28 0 39 -3 32 -10 -14 -14 -13
-22 6 -40 17 -18 9 -43 -9 -28 -7 5 -30 13 -52 17 -22 4 -44 10 -50 13 -5 4
-35 8 -65 9 -30 0 -57 2 -60 3 -3 1 -8 2 -12 1 -7 -1 -10 8 -7 25 0 4 -5 10
-12 15 -8 4 -10 11 -7 14 4 4 13 3 20 -1 19 -12 39 -14 32 -3 -3 5 -9 7 -14 4
-11 -7 -33 22 -26 34 8 12 56 -7 56 -21z m-104 -66 c35 -16 45 -32 19 -32 -43
0 -125 -125 -125 -191 0 -16 -4 -29 -10 -29 -5 0 -10 7 -10 15 0 8 -24 33 -52
55 -87 66 -84 62 -57 72 52 19 108 95 112 149 2 38 18 40 55 8 19 -17 50 -38
68 -47z m34 69 c0 -6 -4 -12 -8 -15 -5 -3 -9 1 -9 9 0 8 4 15 9 15 4 0 8 -4 8
-9z m300 -56 c-7 -9 -15 -13 -17 -11 -6 6 20 36 26 30 2 -2 -2 -10 -9 -19z
m440 -25 c0 -5 -5 -10 -11 -10 -5 0 -7 5 -4 10 3 6 8 10 11 10 2 0 4 -4 4 -10z
m53 -3 c3 -7 -3 -13 -14 -13 -13 0 -15 3 -7 13 6 7 12 13 13 13 2 0 5 -6 8
-13z m37 7 c0 -8 -19 -13 -24 -6 -3 5 1 9 9 9 8 0 15 -2 15 -3z m90 -20 c0 -2
-8 -1 -17 4 -10 5 -25 7 -33 5 -13 -4 -13 -3 -1 6 14 9 51 -2 51 -15z m594 18
c2 -4 -5 -9 -17 -9 -17 -2 -19 0 -7 7 18 12 18 12 24 2z m441 -11 c-3 -6 -11
-11 -16 -11 -5 0 -4 6 3 14 14 16 24 13 13 -3z m141 7 c4 -7 3 -8 -4 -4 -7 4
-12 2 -12 -5 0 -7 -3 -10 -6 -6 -6 5 3 27 11 27 2 0 7 -5 11 -12z m-662 -7 c4
-5 -3 -7 -14 -4 -23 6 -26 13 -6 13 8 0 17 -4 20 -9z m179 -6 c-3 -9 -8 -14
-10 -11 -3 3 -2 9 2 15 9 16 15 13 8 -4z m-1437 -21 c45 -21 57 -32 106 -99
69 -94 113 -115 239 -115 80 0 97 -3 140 -27 48 -26 99 -79 99 -104 0 -8 6 -7
18 4 14 13 22 13 47 3 17 -7 50 -12 73 -12 42 1 64 -10 45 -23 -30 -21 -67
-181 -41 -181 4 0 8 -11 8 -24 0 -13 6 -26 13 -29 6 -2 9 -8 5 -12 -4 -4 -24
1 -45 10 -21 10 -60 21 -88 23 -59 5 -63 8 -47 30 29 39 42 85 42 142 0 34 -4
59 -9 56 -5 -3 -7 -26 -5 -50 6 -63 -48 -176 -83 -176 -7 0 -13 -4 -13 -10 0
-5 -9 -10 -20 -10 -11 0 -20 -4 -20 -10 0 -6 -27 -10 -60 -10 -46 0 -70 6
-107 27 -57 32 -62 36 -98 93 -36 57 -39 60 -103 93 -47 23 -65 27 -144 27
-98 0 -134 12 -185 58 -30 27 -59 81 -64 117 -2 11 1 42 5 68 6 38 17 57 54
96 26 26 58 52 71 57 36 15 124 8 167 -12z m1488 17 c4 -5 -3 -7 -14 -4 -23 6
-26 13 -6 13 8 0 17 -4 20 -9z m-1304 -77 c0 3 29 -8 65 -25 57 -25 87 -35
118 -38 5 -1 6 -5 2 -10 -3 -6 10 -8 34 -5 22 2 42 0 46 -5 3 -6 -3 -8 -15 -6
-11 2 -20 -2 -20 -8 0 -7 -4 -6 -10 3 -5 8 -12 11 -16 7 -4 -3 -1 -15 7 -24
12 -16 12 -17 -2 -6 -9 7 -20 9 -24 5 -5 -4 -6 -2 -2 3 3 6 -3 17 -15 24 -16
10 -19 10 -12 -1 6 -11 5 -11 -8 0 -14 11 -20 10 -38 -8 -16 -16 -25 -19 -33
-11 -15 15 -30 14 -21 -1 5 -8 0 -7 -11 2 -10 8 -21 15 -24 15 -3 0 -5 3 -4 7
2 4 -4 5 -11 2 -10 -4 -13 0 -9 14 5 22 -18 44 -25 23 -3 -8 -8 -6 -18 6 -17
22 -18 37 -2 27 8 -5 9 0 5 15 -5 21 -5 22 19 6 13 -8 24 -13 24 -11z m400
-78 c0 -3 -4 -8 -10 -11 -5 -3 -10 -1 -10 4 0 6 5 11 10 11 6 0 10 -2 10 -4z
m60 -2 c0 -8 -19 -13 -24 -6 -3 5 1 9 9 9 8 0 15 -2 15 -3z m215 -4 c3 -5 1
-10 -4 -10 -6 0 -11 5 -11 10 0 6 2 10 4 10 3 0 8 -4 11 -10z m115 4 c0 -8
-19 -13 -24 -6 -3 5 1 9 9 9 8 0 15 -2 15 -3z m35 -4 c-3 -5 -12 -10 -18 -10
-7 0 -6 4 3 10 19 12 23 12 15 0z m67 3 c-6 -3 -9 -10 -5 -16 4 -7 -1 -6 -10
2 -9 7 -17 9 -17 4 0 -5 -6 -10 -14 -10 -30 0 -4 22 27 23 17 1 26 -1 19 -3z
m242 -1 c3 -5 -1 -9 -9 -9 -8 0 -12 4 -9 9 3 4 7 8 9 8 2 0 6 -4 9 -8z m146
-2 c0 -5 -2 -10 -4 -10 -3 0 -8 5 -11 10 -3 6 -1 10 4 10 6 0 11 -4 11 -10z
m80 6 c0 -3 -4 -8 -10 -11 -5 -3 -10 -1 -10 4 0 6 5 11 10 11 6 0 10 -2 10 -4z
m-280 -21 c0 -2 -9 -3 -19 -2 -11 0 -18 5 -15 9 4 6 34 0 34 -7z m-745 -24 c3
-5 2 -12 -3 -15 -5 -3 -9 1 -9 9 0 17 3 19 12 6z m489 -126 c15 -4 53 -23 84
-41 49 -30 64 -34 124 -34 58 0 78 5 138 36 59 30 80 35 135 35 55 0 71 -4
107 -29 42 -29 84 -72 72 -72 -4 0 -1 -6 5 -14 13 -16 17 -122 6 -157 -13 -39
-51 -83 -93 -107 -22 -12 -41 -19 -44 -17 -3 3 -17 1 -31 -4 -33 -13 -123 11
-182 48 -36 23 -57 28 -115 30 -64 2 -76 -1 -137 -35 -56 -31 -77 -37 -128
-37 -96 -1 -166 45 -202 130 -15 38 -18 123 -3 123 6 0 9 3 8 8 -5 19 18 60
51 90 56 50 127 66 205 47z m473 -441 c-3 -3 -12 -4 -19 -1 -8 3 -5 6 6 6 11
1 17 -2 13 -5z"/>
<path d="M3265 6942 c-47 -10 -84 -72 -61 -104 15 -20 50 -38 75 -38 29 0 64
49 56 80 -3 14 -6 30 -7 37 -1 7 -5 10 -10 7 -4 -3 -8 -1 -8 4 0 13 -20 19
-45 14z m43 -87 c-6 -14 -18 -25 -26 -25 -12 0 -10 6 8 25 13 14 25 25 27 25
1 0 -3 -11 -9 -25z"/>
<path d="M2855 6474 c-27 -20 -27 -88 -1 -107 11 -8 29 -13 40 -12 12 1 26 3
33 4 40 4 57 73 26 107 -22 24 -71 28 -98 8z"/>
<path d="M3497 6756 c-4 -10 -3 -15 3 -11 6 3 10 1 10 -6 0 -7 3 -10 6 -6 3 3
2 13 -4 22 -8 16 -9 16 -15 1z"/>
<path d="M3303 6525 c-75 -32 -33 -150 45 -130 32 8 64 34 56 46 -3 5 -1 9 5
9 14 0 -8 51 -29 67 -24 19 -45 21 -77 8z"/>
<path d="M3097 6219 c-9 -6 -21 -8 -25 -5 -11 6 -56 -25 -59 -41 -2 -7 1 -13
6 -13 4 0 6 -10 4 -23 -3 -16 5 -35 23 -56 25 -31 31 -33 73 -28 25 3 47 10
49 17 2 6 15 15 28 20 26 10 41 50 28 77 -4 10 -7 21 -6 24 0 3 -5 6 -13 6 -8
0 -12 -4 -9 -9 3 -4 -2 -5 -10 -2 -9 3 -14 9 -12 13 3 4 -7 8 -22 9 -14 1 -28
6 -32 11 -3 6 -12 6 -23 0z"/>
<path d="M3435 6100 c3 -5 8 -10 11 -10 2 0 4 5 4 10 0 6 -5 10 -11 10 -5 0
-7 -4 -4 -10z"/>
<path d="M3260 5934 c0 -2 9 -8 20 -14 11 -6 20 -7 20 -2 0 6 -9 12 -20 15
-11 3 -20 3 -20 1z"/>
<path d="M4867 6403 c-4 -3 -7 -11 -7 -17 0 -6 5 -5 12 2 6 6 9 14 7 17 -3 3
-9 2 -12 -2z"/>
<path d="M7276 6124 c-14 -15 -26 -37 -26 -49 0 -25 45 -75 67 -75 43 0 87 58
73 96 -10 26 -47 54 -71 54 -9 0 -28 -12 -43 -26z"/>
<path d="M7395 5554 c-30 -32 -31 -51 -6 -83 27 -35 85 -37 111 -4 27 34 25
59 -5 88 -32 33 -70 32 -100 -1z"/>
<path d="M7441 5052 c-55 -44 -5 -143 61 -120 37 13 59 54 47 87 -19 50 -69
65 -108 33z m86 -67 c-15 -16 -19 -13 -11 9 3 9 10 13 15 10 5 -3 3 -11 -4
-19z"/>
<path d="M7287 4471 c-13 -23 -15 -35 -6 -58 26 -75 139 -49 139 31 0 25 -45
56 -81 56 -28 0 -38 -6 -52 -29z"/>
<path d="M2683 6005 c-71 -30 -48 -125 31 -125 30 0 40 6 56 32 18 31 19 34 2
62 -22 37 -50 47 -89 31z"/>
<path d="M2539 5437 c-44 -30 -49 -64 -13 -100 33 -33 64 -34 92 -4 36 38 28
88 -18 112 -26 13 -31 13 -61 -8z"/>
<path d="M5390 6080 c0 -6 4 -9 9 -6 5 4 12 1 14 -4 3 -6 4 -5 3 2 -3 15 -26
23 -26 8z"/>
<path d="M4030 5841 c0 -6 4 -12 8 -15 5 -3 9 1 9 9 0 8 -4 15 -9 15 -4 0 -8
-4 -8 -9z"/>
<path d="M4110 5820 c0 -5 5 -10 11 -10 5 0 7 5 4 10 -3 6 -8 10 -11 10 -2 0
-4 -4 -4 -10z"/>
<path d="M4707 5879 c7 -7 15 -10 18 -7 3 3 -2 9 -12 12 -14 6 -15 5 -6 -5z"/>
<path d="M6396 5722 c-3 -4 4 -9 15 -9 23 -2 25 3 4 10 -8 4 -16 3 -19 -1z"/>
<path d="M5340 5699 c0 -6 -9 -9 -19 -6 -14 3 -18 1 -14 -9 6 -17 15 -18 31
-2 8 8 12 9 12 1 0 -6 -3 -13 -7 -16 -5 -2 -3 -3 3 -1 6 1 11 -4 11 -11 0 -8
-7 -11 -15 -7 -10 3 -13 1 -8 -6 3 -6 1 -14 -5 -18 -8 -5 -9 -3 -4 6 6 9 4 11
-6 5 -12 -8 -12 -6 0 8 11 15 11 17 -1 17 -18 0 -18 -44 1 -62 10 -11 12 -10
9 2 -2 9 4 15 14 15 23 0 43 21 29 29 -7 5 -5 16 7 34 9 14 12 23 5 19 -6 -4
-14 -3 -18 3 -8 13 -25 13 -25 -1z m28 -24 c-3 -3 -9 2 -12 12 -6 14 -5 15 5
6 7 -7 10 -15 7 -18z"/>
<path d="M6056 5542 c-2 -4 -1 -14 4 -22 7 -11 9 -9 7 8 -1 24 -3 26 -11 14z"/>
<path d="M5150 5401 c0 -5 8 -15 18 -22 15 -12 16 -12 5 2 -7 9 -10 19 -6 22
3 4 1 7 -5 7 -7 0 -12 -4 -12 -9z"/>
<path d="M4865 5270 c-3 -6 1 -7 9 -4 18 7 21 14 7 14 -6 0 -13 -4 -16 -10z"/>
<path d="M4863 5237 c0 -8 6 -14 12 -14 6 0 12 6 12 14 0 7 -6 13 -12 13 -6 0
-12 -6 -12 -13z"/>
<path d="M4875 5200 c3 -5 8 -10 11 -10 2 0 4 5 4 10 0 6 -5 10 -11 10 -5 0
-7 -4 -4 -10z"/>
<path d="M4871 5166 c-9 -10 -9 -16 -1 -21 6 -4 14 -4 17 -1 4 3 1 6 -7 6 -10
0 -10 3 0 15 7 8 10 15 7 15 -2 0 -10 -6 -16 -14z"/>
<path d="M4873 5110 c1 -11 5 -20 9 -20 3 0 6 9 5 20 -1 11 -5 20 -9 20 -3 0
-6 -9 -5 -20z"/>
<path d="M5004 5158 c7 -33 19 -50 26 -37 5 7 3 20 -3 31 -13 21 -26 24 -23 6z"/>
<path d="M2560 4918 c-37 -40 -15 -100 42 -114 23 -5 33 0 58 25 24 27 28 36
19 57 -5 14 -15 32 -23 40 -22 21 -72 17 -96 -8z"/>
<path d="M2691 4359 c-34 -28 -33 -75 3 -106 34 -29 44 -29 78 0 43 36 39 94
-8 115 -34 16 -45 15 -73 -9z"/>
<path d="M5590 4975 c5 -7 7 -15 4 -18 -9 -9 -12 -77 -3 -83 4 -2 10 0 13 5 4
5 1 13 -5 17 -8 4 -7 9 2 15 12 8 12 10 0 18 -8 5 -9 11 -3 15 15 9 11 43 -5
43 -9 0 -10 -4 -3 -12z"/>
<path d="M5590 4780 c0 -5 5 -10 10 -10 6 0 10 5 10 10 0 6 -4 10 -10 10 -5 0
-10 -4 -10 -10z"/>
<path d="M6200 4231 c-13 -13 -12 -14 4 -8 10 4 29 7 42 7 13 0 24 4 24 8 0
15 -55 9 -70 -7z"/>
<path d="M6310 4241 c0 -6 5 -13 10 -16 6 -3 10 1 10 9 0 9 -4 16 -10 16 -5 0
-10 -4 -10 -9z"/>
<path d="M2840 3990 c0 -5 5 -10 11 -10 5 0 7 5 4 10 -3 6 -8 10 -11 10 -2 0
-4 -4 -4 -10z"/>
<path d="M2814 3955 c-11 -27 2 -37 14 -11 7 16 8 26 1 26 -5 0 -12 -7 -15
-15z"/>
<path d="M2948 3919 c-10 -5 -20 -25 -24 -45 -5 -28 -2 -40 17 -60 28 -29 58
-31 93 -3 66 52 -13 151 -86 108z"/>
<path d="M3297 3452 c-22 -25 -21 -75 1 -95 29 -26 77 -22 101 9 12 15 21 32
21 39 0 7 -9 24 -21 39 -25 32 -77 36 -102 8z m69 -17 c4 -8 12 -15 18 -15 7
0 13 -7 13 -15 0 -8 -7 -15 -14 -15 -8 0 -12 -4 -9 -9 8 -12 -23 -23 -44 -16
-30 9 -33 36 -8 61 27 27 37 29 44 9z"/>
<path d="M7105 4004 c-14 -15 -25 -35 -25 -44 0 -26 46 -70 73 -70 62 0 94 78
49 120 -30 28 -68 25 -97 -6z m95 -46 c0 -14 -30 -48 -42 -48 -13 0 -9 20 10
45 17 23 32 24 32 3z"/>
<path d="M6759 3575 c-30 -16 -51 -58 -42 -82 10 -26 45 -52 69 -53 25 0 74
43 74 65 0 27 -19 54 -48 69 -23 12 -31 12 -53 1z m66 -85 c-10 -11 -23 -20
-28 -20 -6 0 0 11 13 25 27 29 42 25 15 -5z"/>
<path d="M6394 3232 c-50 -8 -74 -67 -43 -105 23 -30 80 -38 103 -14 48 48 7
130 -60 119z m56 -71 c0 -31 -40 -47 -68 -27 -10 7 -6 14 15 27 36 24 53 24
53 0z"/>
<path d="M5836 2969 c-49 -39 -20 -119 44 -119 34 0 71 39 65 69 -9 46 -16 59
-38 65 -34 9 -42 7 -71 -15z"/>
<path d="M5674 2938 c2 -7 6 -31 11 -53 9 -45 42 -99 75 -122 36 -25 33 -8 -5
25 -19 17 -35 38 -35 45 0 8 -3 17 -7 21 -4 4 -8 13 -9 19 -2 30 -17 77 -24
77 -5 0 -7 -6 -6 -12z"/>
<path d="M3912 3345 c3 -3 16 -8 28 -10 12 -2 20 -1 16 2 -4 4 -16 8 -28 10
-12 2 -19 1 -16 -2z"/>
<path d="M3741 3174 c-17 -7 -32 -19 -32 -26 -7 -71 11 -98 66 -98 56 0 84 59
50 107 -19 28 -46 33 -84 17z"/>
<path d="M4251 2911 c-45 -34 -25 -107 34 -125 26 -8 73 31 79 64 4 29 -9 51
-41 68 -30 16 -44 15 -72 -7z m49 -91 c0 -13 -11 -13 -30 0 -12 8 -11 10 8 10
12 0 22 -4 22 -10z"/>
<path d="M4759 2832 c-29 -24 -30 -75 -2 -104 32 -31 90 -18 108 25 29 69 -48
125 -106 79z"/>
<path d="M5344 2825 c-71 -57 9 -162 84 -109 25 17 31 84 9 102 -34 29 -63 31
-93 7z"/>
<path d="M3256 7202 c-10 -16 20 -46 38 -39 10 4 14 11 11 17 -10 16 -43 31
-49 22z"/>
<path d="M6580 7180 c-8 -5 -10 -10 -5 -10 6 0 17 5 25 10 8 5 11 10 5 10 -5
0 -17 -5 -25 -10z"/>
<path d="M6915 7160 c-3 -5 -1 -10 4 -10 6 0 11 5 11 10 0 6 -2 10 -4 10 -3 0
-8 -4 -11 -10z"/>
<path d="M4355 7135 c-14 -13 -25 -36 -25 -50 0 -33 42 -75 75 -75 14 0 37 11
50 24 22 22 24 35 16 88 -1 11 -57 38 -76 38 -9 0 -27 -11 -40 -25z"/>
<path d="M5590 7153 c-19 -8 -44 -42 -47 -66 -2 -10 10 -32 26 -48 35 -34 75
-34 104 2 46 56 -15 138 -83 112z"/>
<path d="M6557 7111 c-10 -14 -10 -14 4 -4 9 7 18 10 21 7 3 -3 8 -1 12 4 9
16 -24 9 -37 -7z"/>
<path d="M3003 7051 c1 -12 7 -17 18 -14 10 3 15 11 12 19 -8 21 -32 17 -30
-5z"/>
<path d="M7010 6941 c0 -5 5 -13 10 -16 6 -3 10 -2 10 4 0 5 -4 13 -10 16 -5
3 -10 2 -10 -4z"/>
<path d="M7160 6782 c0 -10 7 -19 15 -19 8 0 15 9 15 19 0 10 -7 18 -15 18 -8
0 -15 -8 -15 -18z"/>
<path d="M6570 6740 c-9 -6 -10 -10 -3 -10 6 0 15 5 18 10 8 12 4 12 -15 0z"/>
<path d="M6805 6600 c3 -5 11 -10 16 -10 6 0 7 5 4 10 -3 6 -11 10 -16 10 -6
0 -7 -4 -4 -10z"/>
<path d="M7023 6572 c-66 -52 6 -145 85 -109 34 16 35 81 1 110 -27 22 -58 21
-86 -1z"/>
<path d="M6817 6573 c-11 -11 -8 -23 6 -23 8 0 14 7 14 15 0 16 -9 19 -20 8z"/>
<path d="M6642 6517 c-25 -29 -31 -64 -16 -86 35 -50 99 -48 122 5 14 29 0 74
-23 74 -9 0 -13 5 -10 10 9 15 -61 12 -73 -3z"/>
<path d="M6810 6381 c0 -25 6 -27 13 -6 4 8 2 17 -3 20 -6 4 -10 -3 -10 -14z"/>
<path d="M6030 6380 c-12 -7 -10 -9 7 -7 12 0 19 5 17 9 -6 10 -6 10 -24 -2z"/>
<path d="M6100 6380 c-9 -6 -10 -10 -3 -10 6 0 15 5 18 10 8 12 4 12 -15 0z"/>
<path d="M6837 6383 c-4 -3 -7 -11 -7 -17 0 -6 5 -5 12 2 6 6 9 14 7 17 -3 3
-9 2 -12 -2z"/>
<path d="M6127 6339 c7 -7 15 -10 18 -7 3 3 -2 9 -12 12 -14 6 -15 5 -6 -5z"/>
<path d="M6155 6300 c-3 -5 -1 -10 4 -10 6 0 11 5 11 10 0 6 -2 10 -4 10 -3 0
-8 -4 -11 -10z"/>
<path d="M6879 6197 c-53 -35 -52 -104 1 -132 42 -22 58 -19 92 15 26 27 30
36 25 67 -7 42 -4 39 -49 57 -34 15 -38 14 -69 -7z"/>
<path d="M7570 6201 c0 -7 -4 -9 -10 -6 -5 3 -10 1 -10 -4 0 -6 4 -11 9 -11
13 0 25 20 17 27 -3 4 -6 1 -6 -6z"/>
<path d="M2468 6043 c7 -3 16 -2 19 1 4 3 -2 6 -13 5 -11 0 -14 -3 -6 -6z"/>
<path d="M7700 5596 c0 -2 7 -9 15 -16 9 -7 15 -8 15 -2 0 5 -7 12 -15 16 -8
3 -15 4 -15 2z"/>
<path d="M7690 5335 c0 -8 5 -15 10 -15 6 0 10 7 10 15 0 8 -4 15 -10 15 -5 0
-10 -7 -10 -15z"/>
<path d="M2330 5269 c0 -11 5 -17 10 -14 6 3 10 13 10 21 0 8 -4 14 -10 14 -5
0 -10 -9 -10 -21z"/>
<path d="M2380 5201 c0 -6 5 -13 10 -16 6 -3 10 1 10 9 0 9 -4 16 -10 16 -5 0
-10 -4 -10 -9z"/>
<path d="M7650 5180 c0 -5 7 -10 15 -10 8 0 15 5 15 10 0 6 -7 10 -15 10 -8 0
-15 -4 -15 -10z"/>
<path d="M7715 5169 c-4 -6 -5 -12 -2 -15 2 -3 7 2 10 11 7 17 1 20 -8 4z"/>
<path d="M7675 5150 c-3 -6 1 -7 9 -4 18 7 21 14 7 14 -6 0 -13 -4 -16 -10z"/>
<path d="M7715 5121 c-3 -5 -2 -12 3 -15 5 -3 9 1 9 9 0 17 -3 19 -12 6z"/>
<path d="M7707 4884 c-7 -8 3 -34 13 -34 9 0 8 26 -1 35 -3 3 -8 2 -12 -1z"/>
<path d="M2366 4701 c-4 -5 -2 -12 3 -15 5 -4 12 -2 15 3 4 5 2 12 -3 15 -5 4
-12 2 -15 -3z"/>
<path d="M2472 4533 c-6 -2 -10 -9 -6 -14 8 -14 21 -11 21 6 0 8 -1 15 -1 14
-1 0 -7 -3 -14 -6z"/>
<path d="M7586 4382 c-3 -6 -1 -14 5 -17 15 -10 25 3 12 16 -7 7 -13 7 -17 1z"/>
<path d="M2496 4182 c-3 -5 1 -18 9 -28 14 -18 14 -18 10 5 -5 28 -11 36 -19
23z"/>
<path d="M7452 4173 c-12 -23 -5 -43 14 -36 16 6 19 39 5 48 -6 3 -14 -2 -19
-12z"/>
<path d="M7096 3621 c-3 -5 1 -11 9 -14 9 -4 12 -1 8 9 -6 16 -10 17 -17 5z"/>
<path d="M2870 3600 c0 -13 5 -20 13 -17 6 2 12 10 12 17 0 7 -6 15 -12 18 -8
2 -13 -5 -13 -18z"/>
<path d="M7130 3601 c0 -6 4 -12 8 -15 5 -3 9 1 9 9 0 8 -4 15 -9 15 -4 0 -8
-4 -8 -9z"/>
<path d="M3019 3456 c6 -7 7 -16 3 -21 -4 -4 -1 -6 7 -3 23 7 24 25 1 31 -16
4 -19 2 -11 -7z"/>
<path d="M7010 3394 c0 -17 22 -14 28 4 2 7 -3 12 -12 12 -9 0 -16 -7 -16 -16z"/>
<path d="M7022 3328 c5 -15 28 -18 29 -3 0 6 -7 12 -17 13 -10 3 -15 -1 -12
-10z"/>
<path d="M3126 3225 c3 -6 11 -12 18 -12 8 0 12 6 10 12 -3 6 -11 12 -18 12
-8 0 -12 -6 -10 -12z"/>
<path d="M6735 3200 c-3 -5 -1 -10 4 -10 6 0 11 5 11 10 0 6 -2 10 -4 10 -3 0
-8 -4 -11 -10z"/>
<path d="M3215 3190 c3 -5 11 -10 16 -10 6 0 7 5 4 10 -3 6 -11 10 -16 10 -6
0 -7 -4 -4 -10z"/>
<path d="M3415 3140 c-3 -5 -2 -10 4 -10 5 0 13 5 16 10 3 6 2 10 -4 10 -5 0
-13 -4 -16 -10z"/>
<path d="M3450 3110 c0 -5 5 -10 11 -10 5 0 7 5 4 10 -3 6 -8 10 -11 10 -2 0
-4 -4 -4 -10z"/>
<path d="M3600 2905 c7 -8 16 -12 21 -9 16 9 10 20 -12 21 -17 2 -18 -1 -9
-12z"/>
<path d="M4013 2785 c0 -8 4 -12 9 -9 5 3 6 10 3 15 -9 13 -12 11 -12 -6z"/>
<path d="M6324 2689 c-4 -7 -7 -421 -5 -600 l1 -35 100 -1 100 -1 1 26 c3 72
4 598 1 608 -4 13 -190 16 -198 3z"/>
<path d="M5766 2680 c-16 -5 -17 -8 -5 -15 22 -15 37 -14 35 1 -3 20 -9 22
-30 14z"/>
<path d="M7245 2659 c-90 -34 -147 -105 -169 -210 -33 -160 17 -305 128 -374
45 -27 57 -30 135 -30 96 0 139 15 192 69 55 54 82 128 85 229 4 150 -49 258
-151 307 -63 30 -155 34 -220 9z m140 -189 c18 -36 25 -129 13 -185 -15 -71
-70 -92 -99 -38 -21 40 -19 192 4 226 24 38 62 36 82 -3z"/>
<path d="M2399 2660 c-23 -5 -24 -8 -24 -85 l0 -80 87 -3 88 -3 2 -217 3 -217
102 -1 c87 -1 103 1 107 15 2 9 3 102 2 206 -1 105 0 196 2 203 3 9 47 12 173
12 l170 0 -1 -192 c-1 -106 -1 -205 -1 -219 l1 -26 100 0 c61 -1 103 3 107 10
3 6 6 104 6 218 l0 208 86 3 86 3 3 83 c2 61 0 82 -10 83 -64 4 -1070 3 -1089
-1z"/>
<path d="M3557 2662 l-27 -3 2 -302 3 -302 220 -1 c121 -1 229 0 240 3 19 4
21 11 20 79 -1 43 -6 79 -12 82 -6 4 -66 7 -132 7 -77 -1 -121 3 -122 10 -1 5
-2 101 -3 212 -1 111 -5 205 -9 210 -8 7 -129 11 -180 5z"/>
<path d="M4424 2662 c3 -5 0 -13 -6 -15 -8 -3 -6 -6 5 -6 19 -1 23 14 5 25 -6
4 -8 3 -4 -4z"/>
<path d="M4090 2648 c0 -4 4 -8 9 -8 6 0 12 4 15 8 3 5 -1 9 -9 9 -8 0 -15 -4
-15 -9z"/>
<path d="M5545 2601 c-15 -17 -15 -19 -1 -17 22 3 40 22 28 30 -5 3 -17 -3
-27 -13z"/>
<path d="M4683 2557 c4 -14 26 -16 30 -3 1 5 -6 10 -16 12 -10 1 -16 -3 -14
-9z"/>
<path d="M4963 2542 c-32 -2 -41 -7 -36 -17 4 -13 0 -13 -31 0 -55 23 -145 19
-197 -8 -168 -89 -167 -360 2 -447 27 -14 54 -18 110 -16 41 1 82 6 92 10 17
8 18 2 16 -78 -1 -48 1 -89 5 -93 10 -10 186 -11 193 0 7 12 7 622 0 635 -4 5
-23 8 -44 7 -21 -1 -45 1 -53 4 -8 3 -34 5 -57 3z m-64 -188 c12 -15 21 -41
21 -59 0 -40 -34 -85 -65 -85 -12 0 -33 9 -46 19 -19 15 -24 29 -24 66 0 37 5
51 24 66 33 27 66 24 90 -7z"/>
<path d="M5950 2539 c-62 -7 -157 -35 -166 -50 -4 -7 45 -119 61 -137 2 -2 18
4 36 13 56 29 159 20 159 -14 0 -3 -28 -5 -61 -4 -87 2 -150 -19 -189 -64 -30
-34 -32 -40 -28 -94 5 -63 26 -97 79 -124 38 -20 171 -15 197 8 19 17 20 17
24 -1 5 -18 14 -19 94 -17 49 1 92 3 95 4 4 0 6 72 4 159 -2 162 -12 210 -53
255 -44 49 -152 77 -252 66z m100 -312 c0 -40 -59 -66 -85 -37 -15 16 -15 19
0 34 20 20 85 22 85 3z"/>
<path d="M4186 2526 c-100 -37 -161 -127 -160 -237 0 -52 5 -75 27 -111 52
-89 134 -128 270 -128 86 0 146 20 183 61 18 19 17 21 -33 71 l-51 51 -39 -15
c-46 -19 -110 -16 -131 6 -15 15 -3 16 140 16 179 0 176 -1 163 88 -13 86 -68
159 -145 193 -46 21 -173 23 -224 5z m162 -154 c12 -15 10 -17 -17 -20 -17 -2
-47 -2 -68 0 l-38 3 24 22 c28 26 77 24 99 -5z"/>
<path d="M6710 2529 c-19 -6 -50 -22 -68 -35 -91 -70 -80 -200 21 -244 38 -17
149 -37 170 -32 5 2 7 -3 5 -10 -7 -22 -82 -20 -148 2 -51 17 -65 19 -71 8 -5
-7 -9 -17 -9 -21 0 -4 -9 -29 -21 -54 -17 -37 -18 -47 -7 -54 33 -22 111 -37
203 -38 87 -1 107 2 151 23 81 38 115 102 93 179 -17 62 -78 98 -190 112 -63
8 -76 14 -58 26 20 12 114 2 150 -16 l30 -16 28 63 c16 34 27 68 24 74 -9 24
-61 36 -163 40 -58 2 -121 -1 -140 -7z"/>
<path d="M3051 1923 c-1 -12 -7 -24 -13 -26 -10 -4 -10 -6 0 -6 6 -1 12 -6 12
-12 0 -5 -5 -7 -12 -3 -7 5 -8 3 -3 -6 6 -10 4 -12 -9 -7 -12 5 -16 3 -13 -5
9 -25 -13 -48 -39 -44 -15 3 -22 1 -18 -5 3 -6 9 -8 12 -4 3 3 14 -9 24 -27
12 -21 17 -26 16 -13 -2 11 -7 23 -11 26 -5 3 -2 9 6 12 11 4 15 1 12 -12 -6
-30 10 -45 26 -25 12 16 12 17 -1 10 -9 -5 -8 -2 2 7 13 10 14 17 6 25 -7 7
-13 19 -14 27 -2 13 1 14 12 4 7 -6 12 -14 10 -18 -3 -4 4 -7 14 -8 11 -1 22
2 25 7 2 4 -3 7 -13 6 -9 0 -16 5 -14 12 1 8 -2 11 -8 7 -12 -8 -13 -3 0 29 6
16 6 35 0 48 -9 23 -9 23 -9 1z"/>
<path d="M2955 1881 c-6 -11 13 -26 22 -17 4 3 1 6 -6 6 -7 0 -9 5 -6 10 3 6
4 10 1 10 -3 0 -7 -4 -11 -9z"/>
<path d="M2994 1851 c5 -8 0 -10 -18 -7 -14 3 -26 1 -26 -3 0 -11 49 -11 55 0
3 4 0 11 -6 15 -8 4 -9 3 -5 -5z"/>
<path d="M3205 1830 c-3 -5 -12 -7 -20 -3 -8 3 -15 3 -15 0 0 -13 30 -14 40
-1 7 8 10 14 7 14 -3 0 -8 -4 -12 -10z"/>
<path d="M2964 1774 c9 -8 16 -20 16 -26 0 -6 3 -9 6 -6 8 9 -14 48 -27 48 -6
0 -3 -7 5 -16z"/>
<path d="M2955 1740 c3 -5 8 -10 11 -10 2 0 4 5 4 10 0 6 -5 10 -11 10 -5 0
-7 -4 -4 -10z"/>
</g>
</svg>
